<?xml version="1.0" encoding="UTF-8" standalone="no"?>
<svg width="151px" height="144px" viewBox="0 0 151 144" version="1.1" xmlns="http://www.w3.org/2000/svg" xmlns:xlink="http://www.w3.org/1999/xlink">
    <!-- Generator: Sketch 43.2 (39069) - http://www.bohemiancoding.com/sketch -->
    <title>Fylle inn arbeidsoppgaver illustrasjon</title>
    <desc>Created with Sketch.</desc>
    <defs>
        <ellipse id="path-1" cx="75.3816429" cy="71.9705897" rx="75.3816429" ry="71.9705897"></ellipse>
        <polygon id="path-3" points="0 112.883495 125.448053 112.883495 125.448053 0.00708737864 0 0.00708737864"></polygon>
        <polygon id="path-5" points="0.0648672566 8.62821313 2.04072566 10.3901942 6.86552212 8.31796117 11.373646 8.13708738 9.29966372 5.01199029 6.72614159 3.5884466 6.72614159 2.61932039 3.89094988 0.513592233 0.0648672566 0.513592233"></polygon>
        <polygon id="path-7" points="0.445571681 6.95944852 3.04072566 9.27368932 7.86552212 7.20145631 12.373646 7.02058252 10.2996637 3.89548544 7.72614159 2.47194175 7.72614159 1.50281553 6.86355782 0.862165049 0.445571681 0.862165049 0.445571681 6.95944852"></polygon>
        <polygon id="path-9" points="0.941320354 4.17417907 4.15576991 7.04067961 8.98056637 4.9684466 13.4886903 4.78757282 11.414708 1.66247573 8.84118584 0.238932039 8.84118584 0.0946796117 0.941320354 0.0946796117 0.941320354 4.17417907"></polygon>
        <polygon id="path-11" points="14.2725664 3.81463972 3.74766372 0.321553398 0.627769912 0.113883495 6.7333356 6.58849515 14.2725664 6.58849515 14.2725664 3.81463972"></polygon>
        <polygon id="path-13" points="7.7503904 8.05468932 7.93465487 7.86242718 0.627769912 0.113883495 3.74766372 0.321553398 13.6521558 3.60873303 13.6521558 8.05468932 7.7503904 8.05468932"></polygon>
        <polygon id="path-15" points="8.55480294 9.52021359 7.05934513 8.77572816 7.93465487 7.86242718 0.627769912 0.113883495 3.74766372 0.321553398 13.0328602 3.40319641 13.0328602 9.52021359 8.55480294 9.52021359"></polygon>
    </defs>
    <g id="VOL-4-(pilot)" stroke="none" stroke-width="1" fill="none" fill-rule="evenodd">
        <g id="Desktop-Copy-11" transform="translate(-437.000000, -542.000000)">
            <g id="Group" transform="translate(184.000000, 507.000000)">
                <g id="Fylle-inn-arbeidsoppgaver-illustrasjon" transform="translate(253.000000, 35.000000)">
                    <mask id="mask-2" fill="white">
                        <use xlink:href="#path-1"></use>
                    </mask>
                    <use id="Mask" fill="#C2EAF7" xlink:href="#path-1"></use>
                    <g id="Page-1" mask="url(#mask-2)">
                        <g transform="translate(11.000000, 20.000000)">
                            <g id="Group-26" transform="translate(0.000000, 0.109417)">
                                <path d="M90.4383398,7.75607767 C92.7241805,7.75607767 94.5784991,9.61170874 94.5784991,11.9016602 L94.5784991,81.9165631 C94.5784991,84.2065146 92.7241805,86.0621456 90.4383398,86.0621456 L35.0050301,86.0621456 C34.8623044,86.0621456 34.7218088,86.0554466 34.5824283,86.040932 C33.7472602,85.9560777 32.985685,85.6222427 32.3724106,85.1153495 C32.2698265,85.0316117 32.1717027,84.9422913 32.0780389,84.8485049 C31.6097204,84.3795728 31.2529062,83.7989903 31.0521982,83.1491845 C30.9306584,82.7606408 30.8659858,82.3464175 30.8659858,81.9165631 L30.8659858,11.9016602 C30.8659858,9.61170874 32.7191894,7.75607767 35.0050301,7.75607767 L90.4383398,7.75607767 Z" id="Fill-1" fill="#585B5C"></path>
                                <path d="M35.9958584,23.0594515 L35.9958584,76.9308107 C35.9958584,78.851199 37.5513451,80.4087233 39.4692212,80.4087233 L85.9754867,80.4087233 C87.8933628,80.4087233 89.4477345,78.851199 89.4477345,76.9308107 L89.4477345,15.0786748 C89.4477345,13.1582864 87.8933628,11.6007621 85.9754867,11.6007621 L48.0840531,11.6007621 L35.9958584,23.0594515 Z" id="Fill-3" fill="#FFFFFF"></path>
                                <path d="M48.0836071,11.6012087 L48.0836071,19.5819854 C48.0836071,21.5023738 46.5281204,23.0598981 44.6102442,23.0598981 L35.9954124,23.0598981 L48.0836071,11.6012087 Z" id="Fill-5" fill="#CCCAC8"></path>
                                <mask id="mask-4" fill="white">
                                    <use xlink:href="#path-3"></use>
                                </mask>
                                <g id="Clip-8"></g>
                                <polygon id="Fill-7" fill="#CCCAC8" mask="url(#mask-4)" points="53.726177 41.0754854 79.5372212 41.0754854 79.5372212 38.1893204 53.726177 38.1893204"></polygon>
                                <polygon id="Fill-9" fill="#CCCAC8" mask="url(#mask-4)" points="53.726177 47.6070388 79.5372212 47.6070388 79.5372212 44.7208738 53.726177 44.7208738"></polygon>
                                <polygon id="Fill-10" fill="#CCCAC8" mask="url(#mask-4)" points="53.726177 54.1385922 79.5372212 54.1385922 79.5372212 51.2524272 53.726177 51.2524272"></polygon>
                                <polygon id="Fill-11" fill="#CCCAC8" mask="url(#mask-4)" points="53.726177 60.6690291 79.5372212 60.6690291 79.5372212 57.7828641 53.726177 57.7828641"></polygon>
                                <polygon id="Fill-12" fill="#CCCAC8" mask="url(#mask-4)" points="46.671292 41.0754854 49.7175929 41.0754854 49.7175929 38.1893204 46.671292 38.1893204"></polygon>
                                <polygon id="Fill-13" fill="#CCCAC8" mask="url(#mask-4)" points="46.671292 47.6070388 49.7175929 47.6070388 49.7175929 44.7208738 46.671292 44.7208738"></polygon>
                                <polygon id="Fill-14" fill="#CCCAC8" mask="url(#mask-4)" points="46.671292 54.1385922 49.7175929 54.1385922 49.7175929 51.2524272 46.671292 51.2524272"></polygon>
                                <polygon id="Fill-15" fill="#CCCAC8" mask="url(#mask-4)" points="46.671292 60.6690291 49.7175929 60.6690291 49.7175929 57.7828641 46.671292 57.7828641"></polygon>
                                <polyline id="Stroke-16" stroke="#8DC63F" stroke-width="0.423" mask="url(#mask-4)" points="46.2841487 37.4415971 48.2410513 39.6824223 51.0007858 36.1185388"></polyline>
                                <path d="M62.7217965,9.70303883 C61.9825221,9.70303883 61.3837434,9.10347573 61.3837434,8.36323301 C61.3837434,7.62299029 61.9825221,7.02342718 62.7217965,7.02342718 C63.4610708,7.02342718 64.0598496,7.62299029 64.0598496,8.36323301 C64.0598496,9.10347573 63.4610708,9.70303883 62.7217965,9.70303883 M70.9976549,4.221 L66.011177,4.221 L66.011177,3.301 C66.011177,1.48109709 64.5382035,0.00731067961 62.7217965,0.00731067961 C60.9053894,0.00731067961 59.4324159,1.48109709 59.4324159,3.301 L59.4324159,4.221 L54.4459381,4.221 C51.9883805,4.221 49.9946814,6.21619417 49.9946814,8.67808738 L49.9946814,14.0395437 L75.4489115,14.0395437 L75.4489115,8.67808738 C75.4489115,6.21619417 73.4563274,4.221 70.9976549,4.221" id="Fill-17" fill="#37363A" mask="url(#mask-4)"></path>
                                <polygon id="Fill-18" fill="#8D9638" mask="url(#mask-4)" points="8.19267611 90.7835097 28.1686938 97.8487524 22.8644283 112.883607 0.000446017699 112.883607"></polygon>
                                <polygon id="Fill-19" fill="#8FA14D" mask="url(#mask-4)" points="8.19267611 90.7835097 28.1686938 97.8487524 26.0378442 103.887927 6.06182655 96.8226845"></polygon>
                                <path d="M9.19643894,94.5839806 C9.44397876,93.8828155 10.2111292,93.5154854 10.911377,93.7633495 C11.6116248,94.0112136 11.9784743,94.7793689 11.7309345,95.480534 C11.4845097,96.181699 10.7162442,96.5490291 10.0159965,96.301165 C9.31574867,96.053301 8.94889912,95.2851456 9.19643894,94.5839806" id="Fill-20" fill="#37363A" mask="url(#mask-4)"></path>
                                <polygon id="Fill-21" fill="#8D9638" mask="url(#mask-4)" points="117.255042 90.7835097 97.2790248 97.8487524 102.58329 112.883607 125.447273 112.883607"></polygon>
                                <polygon id="Fill-22" fill="#8FA14D" mask="url(#mask-4)" points="117.255042 90.7835097 97.2790248 97.8487524 99.4098743 103.887927 119.385892 96.8226845"></polygon>
                                <path d="M116.25128,94.5839806 C116.00374,93.8828155 115.236589,93.5154854 114.536342,93.7633495 C113.836094,94.0112136 113.469244,94.7793689 113.716784,95.480534 C113.963209,96.181699 114.731474,96.5490291 115.431722,96.301165 C116.13197,96.053301 116.498819,95.2851456 116.25128,94.5839806" id="Fill-23" fill="#37363A" mask="url(#mask-4)"></path>
                                <path d="M23.8580442,85.1495146 L24.1736018,85.3783981 C25.6688761,86.4602913 27.758469,86.1242233 28.8389469,84.6269903 L39.9369823,69.2594175 C41.0185752,67.7621845 40.6829469,65.6698544 39.1876726,64.5879612 L38.872115,64.3590777 C37.3757257,63.276068 35.2872478,63.6121359 34.2056549,65.1093689 L23.1087345,80.4780583 C22.0271416,81.9752913 22.3627699,84.0665049 23.8580442,85.1495146" id="Fill-24" fill="#E7E6E2" mask="url(#mask-4)"></path>
                                <path d="M30.2296301,70.6160825 L30.2296301,70.148267 L30.2296301,58.8838495 L29.2194,58.8838495 C28.9952761,58.8838495 28.7823027,58.9731699 28.6273115,59.1361796 C26.950285,60.8890922 17.0542673,71.2402087 15.2802319,73.1996748 C15.0895593,73.4106942 14.9501788,73.6607913 14.8710106,73.934335 L9.81874513,91.3585097 L25.1729044,96.7891893 C25.1729044,96.7891893 25.4193292,95.6358398 25.665754,94.3205971 C25.9121788,93.0053544 29.3743912,88.8943835 30.2296301,86.8388981 C31.084869,84.7834126 31.3903912,81.0944806 32.7172938,79.2578301 C34.0430814,77.4211796 30.2296301,70.6160825 30.2296301,70.6160825" id="Fill-25" fill="#E7E6E2" mask="url(#mask-4)"></path>
                            </g>
                            <g id="Group-52" transform="translate(68.017699, 56.051165)">
                                <g id="Group-29" transform="translate(33.451327, 12.281553)" fill="#C5232A">
                                    <path d="M0.88779823,4.13598058 L2.2024354,1.02651456 C2.35296637,0.670349515 2.76218761,0.503990291 3.11788673,0.654718447 L4.81609912,1.37486408 C5.17068319,1.52559223 5.33682478,1.93534951 5.18629381,2.29151456 L3.87165664,5.40098058 C3.72112566,5.75602913 3.31190442,5.92238835 2.95620531,5.77166019 L1.25910796,5.05263107 C0.90340885,4.90190291 0.737267257,4.49102913 0.88779823,4.13598058" id="Fill-27"></path>
                                </g>
                                <polygon id="Fill-30" fill="#E9D8BD" points="6.81816106 0.325684466 0.705488496 0.326800971 4.9593823 4.72359709 6.53382478 2.69490777"></polygon>
                                <g id="Group-34" transform="translate(6.575221, 0.000000)">
                                    <mask id="mask-6" fill="white">
                                        <use xlink:href="#path-5"></use>
                                    </mask>
                                    <g id="Clip-33"></g>
                                    <polygon id="Fill-32" fill="#EEC85D" mask="url(#mask-6)" points="29.3782655 14.4040291 29.9982301 12.9380583 0.684831858 0.513592233 0.0648672566 1.9784466"></polygon>
                                </g>
                                <g id="Group-37" transform="translate(5.575221, 1.116505)">
                                    <mask id="mask-8" fill="white">
                                        <use xlink:href="#path-7"></use>
                                    </mask>
                                    <g id="Clip-36"></g>
                                    <polygon id="Fill-35" fill="#E2B954" mask="url(#mask-8)" points="0.445571681 2.32813592 29.7589699 14.7537184 30.3778195 13.2877476 1.06553628 0.862165049"></polygon>
                                </g>
                                <g id="Group-40" transform="translate(4.460177, 3.349515)">
                                    <mask id="mask-10" fill="white">
                                        <use xlink:href="#path-9"></use>
                                    </mask>
                                    <g id="Clip-39"></g>
                                    <polygon id="Fill-38" fill="#EEC85D" mask="url(#mask-10)" points="30.8735681 12.5202621 1.56016991 0.0946796117 0.941320354 1.56065049 30.2536035 13.986233"></polygon>
                                </g>
                                <path d="M6.3025646,0.672359223 C6.18548496,0.949252427 6.45755575,1.28197087 6.30144956,1.65041748 C6.27691858,1.70959223 6.24346726,1.75648544 6.2066708,1.7944466 L6.64042301,1.9786699 L7.26038761,0.512699029 L6.85562655,0.340757282 C6.85562655,0.340757282 6.41964425,0.395466019 6.3025646,0.672359223" id="Fill-41" fill="#EEC85D"></path>
                                <path d="M6.20622478,1.79478155 C6.01220708,1.99575243 5.68549912,1.97788835 5.52047257,2.36866505 C5.35544602,2.75832524 5.59629558,2.98162621 5.58626018,3.26075243 L6.02112743,3.44497573 L6.63997699,1.97900485 L6.20622478,1.79478155 Z" id="Fill-43" fill="#E2B954"></path>
                                <path d="M5.58648319,3.26052913 C5.5842531,3.31412136 5.5742177,3.3699466 5.54968673,3.42912136 C5.39358053,3.79868447 4.96540354,3.83441262 4.84832389,4.11130583 C4.73124425,4.38708252 4.99550973,4.73878155 4.99550973,4.73878155 L5.40138584,4.9107233 L6.0202354,3.44475243 L5.58648319,3.26052913 Z" id="Fill-45" fill="#EEC85D"></path>
                                <polygon id="Fill-47" fill="#5C5B5A" points="0.705153982 0.327247573 2.21046372 1.88253883 2.86833982 0.327247573"></polygon>
                                <g id="Group-51" transform="translate(34.566372, 12.281553)" fill="#5C5B5A">
                                    <polygon id="Fill-49" points="0.147631858 5.05408252 2.00641062 0.656169903 2.60407434 0.909616505 0.744180531 5.30752913"></polygon>
                                </g>
                            </g>
                            <g id="Group-65" transform="translate(79.168142, 56.051165)">
                                <path d="M5.32511681,19.817068 L5.34407257,20.1520194 C5.43550619,21.7374563 6.79251504,22.9499806 8.37699292,22.8584272 L18.6454354,22.2689126 C20.2299133,22.1784757 21.4397363,20.8185728 21.3494177,19.2331359 L21.3293469,18.8981845 C21.2390283,17.3116311 19.8809044,16.1002233 18.2975416,16.1906602 L8.02798407,16.7801748 C6.44462124,16.8717282 5.23479823,18.2316311 5.32511681,19.817068" id="Fill-53" fill="#E7E6E2"></path>
                                <path d="M3.1902531,15.3982767 L3.20920885,15.7332282 C3.30064248,17.318665 4.65765133,18.5311893 6.2421292,18.4396359 L16.5105717,17.8501214 C18.0950496,17.7596845 19.3048726,16.3997816 19.214554,14.8132282 L19.1944832,14.4793932 C19.1041646,12.8928398 17.7460407,11.681432 16.1626779,11.7718689 L5.89312035,12.3613835 C4.30975752,12.4529369 3.09993451,13.8128398 3.1902531,15.3982767" id="Fill-55" fill="#E7E6E2"></path>
                                <path d="M0.562539823,11.0679126 L0.581495575,11.4028641 C0.672929204,12.988301 2.02993805,14.2008252 3.61441593,14.1092718 L13.8828584,13.5197573 C15.4673363,13.4293204 16.6771593,12.0694175 16.5868407,10.4839806 L16.5667699,10.1490291 C16.4764513,8.56247573 15.1183274,7.35106796 13.5349646,7.44150485 L3.26540708,8.03213592 C1.68204425,8.12257282 0.472221239,9.48247573 0.562539823,11.0679126" id="Fill-57" fill="#E7E6E2"></path>
                                <path d="M2.20789912,3.2206699 L2.14657168,3.55003883 C1.85443009,5.11202913 2.88138584,6.61484466 4.4402177,6.90736893 L14.5503239,8.80431068 C16.1091558,9.09683495 17.6111204,8.06853398 17.9032619,6.50766019 L17.9645894,6.17717476 C18.256731,4.61630097 17.2297752,3.11348544 15.6698283,2.82096117 L5.56083717,0.922902913 C4.00089027,0.630378641 2.50004071,1.65979612 2.20789912,3.2206699" id="Fill-59" fill="#E7E6E2"></path>
                                <path d="M8.58595221,10.8312136 L4.72455398,5.01199029 L2.14991681,3.58956311 L16.4626248,3.14296117 C16.6822885,3.18985437 32.4802354,14.6876214 33.8082531,16.9731068 C33.9520938,17.2187379 34.0357221,17.4933981 34.056908,17.7769903 L35.3860407,35.8721845 L20.2928018,41.0873786 C20.2928018,41.0873786 20.0842885,39.8793204 19.8021823,38.5707767 C19.440908,36.8949029 16.7681469,29.3964563 16.3566956,27.2069903 C15.9463593,25.0186408 14.6127664,22.073301 13.0093327,20.474466 C10.9119345,18.3832524 8.58595221,10.8312136 8.58595221,10.8312136" id="Fill-61" fill="#E7E6E2"></path>
                                <path d="M21.5776673,24.2954806 L21.8530832,24.0185874 C23.1543398,22.7100437 23.1498796,20.5909175 21.8419327,19.2868398 L8.42126018,5.90664563 C7.11331327,4.60256796 4.99695929,4.60703398 3.69570265,5.91669417 L3.42028673,6.19358738 C2.11791504,7.50213107 2.12349027,9.62125728 3.43032212,10.9242184 L16.8521097,24.3055291 C18.1600566,25.6096068 20.2752956,25.6051408 21.5776673,24.2954806" id="Fill-63" fill="#E7E6E2"></path>
                            </g>
                            <g id="Group-94" transform="translate(68.017699, 56.051165)">
                                <path d="M34.3391257,16.417534 L35.6537628,13.308068 C35.8042938,12.9519029 36.213515,12.7855437 36.5692142,12.9362718 L38.2674265,13.6564175 C38.6220106,13.8071456 38.7881522,14.2169029 38.6376212,14.573068 L37.3229841,17.682534 C37.1724531,18.0375825 36.7632319,18.2039417 36.4075327,18.0532136 L34.7104354,17.3341845 C34.3547363,17.1834563 34.1885947,16.7725825 34.3391257,16.417534" id="Fill-66" fill="#C5232A"></path>
                                <g id="Group-70" fill="#E9D8BD">
                                    <polygon id="Fill-68" points="6.81816106 0.325684466 0.705488496 0.326800971 4.9593823 4.72359709 6.53382478 2.69490777"></polygon>
                                </g>
                                <g id="Group-73" transform="translate(22.300885, 7.815534)">
                                    <mask id="mask-12" fill="white">
                                        <use xlink:href="#path-11"></use>
                                    </mask>
                                    <g id="Clip-72"></g>
                                    <polygon id="Fill-71" fill="#EEC85D" mask="url(#mask-12)" points="13.6526018 6.58849515 14.2725664 5.12252427 -15.0408319 -7.30194175 -15.6607965 -5.83708738"></polygon>
                                </g>
                                <g id="Group-76" transform="translate(22.300885, 7.815534)">
                                    <mask id="mask-14" fill="white">
                                        <use xlink:href="#path-13"></use>
                                    </mask>
                                    <g id="Clip-75"></g>
                                    <polygon id="Fill-74" fill="#E2B954" mask="url(#mask-14)" points="-16.280092 -4.3708932 13.0333062 8.05468932 13.6521558 6.58871845 -15.6601274 -5.83686408"></polygon>
                                </g>
                                <g id="Group-79" transform="translate(22.300885, 7.815534)">
                                    <mask id="mask-16" fill="white">
                                        <use xlink:href="#path-15"></use>
                                    </mask>
                                    <g id="Clip-78"></g>
                                    <polygon id="Fill-77" fill="#EEC85D" mask="url(#mask-16)" points="13.0328602 8.05424272 -16.2805381 -4.37133981 -16.8993876 -2.90536893 12.4128956 9.52021359"></polygon>
                                </g>
                                <g id="Group-82" transform="translate(5.575221, 0.000000)" fill="#EEC85D">
                                    <path d="M0.727343363,0.672359223 C0.610263717,0.949252427 0.882334513,1.28197087 0.726228319,1.65041748 C0.701697345,1.70959223 0.668246018,1.75648544 0.631449558,1.7944466 L1.06520177,1.9786699 L1.68516637,0.512699029 L1.28040531,0.340757282 C1.28040531,0.340757282 0.844423009,0.395466019 0.727343363,0.672359223" id="Fill-80"></path>
                                </g>
                                <g id="Group-85" transform="translate(5.460177, 1.116505)" fill="#E2B954">
                                    <path d="M0.746047788,0.678276699 C0.552030088,0.879247573 0.225322124,0.861383495 0.0602955752,1.25216019 C-0.104730973,1.64182039 0.136118584,1.86512136 0.126083186,2.14424757 L0.560950442,2.32847087 L1.1798,0.8625 L0.746047788,0.678276699 Z" id="Fill-83"></path>
                                </g>
                                <g id="Group-88" transform="translate(4.460177, 3.233010)" fill="#EEC85D">
                                    <path d="M1.12630619,0.0275194175 C1.12407611,0.0811116505 1.11404071,0.136936893 1.08950973,0.19611165 C0.93340354,0.565674757 0.505226549,0.601402913 0.388146903,0.878296117 C0.271067257,1.15407282 0.535332743,1.50577184 0.535332743,1.50577184 L0.94120885,1.67771359 L1.56005841,0.211742718 L1.12630619,0.0275194175 Z" id="Fill-86"></path>
                                </g>
                                <g id="Group-91" fill="#5C5B5A">
                                    <polygon id="Fill-89" points="0.705153982 0.327247573 2.21046372 1.88253883 2.86833982 0.327247573"></polygon>
                                </g>
                                <polygon id="Fill-92" fill="#5C5B5A" points="34.7140035 17.3356359 36.5727823 12.9377233 37.170446 13.1911699 35.3105522 17.5890825"></polygon>
                            </g>
                        </g>
                    </g>
                </g>
            </g>
        </g>
    </g>
</svg>