<?xml version="1.0" encoding="UTF-8"?>
<svg width="23px" height="24px" viewBox="0 0 16 16" version="1.1" xmlns="http://www.w3.org/2000/svg" xmlns:xlink="http://www.w3.org/1999/xlink">
    <!-- Generator: sketchtool 62 (101010) - https://sketch.com -->
    <title>7CBB371A-E5F5-4A90-BA8F-4B43D4DFC16C@2.00x</title>
    <desc>Created with sketchtool.</desc>
    <defs>
        <path d="M11,6.5 C13.71,6.5 16,8.48466667 16,10.8333333 C16,11.912 15.5513333,12.8593333 14.7486667,13.5846667 C14.9193333,13.9266667 15.448,14.982 15.632,15.3513333 C15.6926667,15.474 15.6733333,15.6213333 15.5813333,15.7226667 C15.4866667,15.828 15.3393333,15.8593333 15.2166667,15.812 C15.0053333,15.7333333 12.884,14.9373333 12.6746667,14.8586667 C12.008,15.1386667 11.1573333,15.298 10.2933333,15.216 L10.2933333,15.216 C7.91866667,14.9826667 6,13.07 6,10.8333333 C6,8.48466667 8.29,6.5 11,6.5 Z M6,0.166666667 C9.308,0.166666667 12,2.39 12,5.12333333 C12,5.396 11.976,5.65733333 11.9326667,5.91 C11.6273333,5.86333333 11.3173333,5.83333333 11,5.83333333 C8.23933333,5.83333333 5.87,7.68466667 5.41733333,10.0273333 C5.178,10.0406667 5.01533333,10.042 4.96533333,10.042 C4.96311111,10.04 4.95844444,10.0391852 4.95266667,10.0389383 L4.91533333,10.0393333 C4.608,9.99733333 4.30666667,9.93466667 4.01666667,9.852 L4.01666667,9.852 L0.790666667,11.1433333 C0.75,11.1586667 0.708,11.1666667 0.666666667,11.1666667 C0.572,11.1666667 0.48,11.126 0.415333333,11.0526667 C0.322,10.946 0.307333333,10.792 0.377333333,10.6686667 L0.377333333,10.6686667 L1.57333333,8.57533333 C0.57,7.674 0,6.43133333 0,5.12333333 C0,2.39 2.69133333,0.166666667 6,0.166666667 Z" id="path-1"></path>
    </defs>
    <g id="Redesign-tiltak" stroke="none" stroke-width="1" fill="none" fill-rule="evenodd">
        <g id="SM-flere-tiltak" transform="translate(-703.000000, -638.000000)">
            <g id="KNAPPER/knapp/-icon/flat-Copy-9" transform="translate(683.000000, 630.000000)">
                <g id="Group" transform="translate(20.000000, 6.000000)">
                    <g id="FILL/comment-&amp;-chat/-chat-double-bubble-4" transform="translate(0.000000, 2.000000)">
                        <mask id="mask-2" fill="white">
                            <use xlink:href="#path-1"></use>
                        </mask>
                        <use id="Mask" fill="#0067C5" fill-rule="nonzero" xlink:href="#path-1"></use>
                        <g id="↪︎-🌈" stroke-width="1" fill-rule="evenodd" mask="url(#mask-2)" fill="#0067C5">
                            <g transform="translate(8.000000, 8.000000) scale(1, -1) translate(-8.000000, -8.000000) " id="Rectangle-3">
                                <rect x="0" y="0" width="16" height="16"></rect>
                            </g>
                        </g>
                    </g>
                </g>
            </g>
        </g>
    </g>
</svg>
