<?xml version="1.0" encoding="UTF-8" standalone="no"?>
<svg width="16px" height="16px" viewBox="0 0 16 16" version="1.1" xmlns="http://www.w3.org/2000/svg" xmlns:xlink="http://www.w3.org/1999/xlink">
    <!-- Generator: Sketch 46 (44423) - http://www.bohemiancoding.com/sketch -->
    <title>Check_green_outlined Copy</title>
    <desc>Created with Sketch.</desc>
    <defs></defs>
    <g id="Visning-Sykmeldt" stroke="none" stroke-width="1" fill="none" fill-rule="evenodd">
        <g id="Check_green_outlined-Copy" fill="#3DA063">
            <g id="Fill-11-Copy-3">
                <path d="M11.5595317,5.91010994 L6.56039733,10.5759687 C6.49640841,10.6352917 6.41442261,10.6652865 6.33310336,10.6652865 C6.2477848,10.6652865 6.16246624,10.6326255 6.09781077,10.56797 L4.43143265,8.90159193 C4.30078861,8.77094789 4.30078861,8.56031769 4.43143265,8.4303402 C4.56141015,8.29969616 4.77204034,8.29969616 4.90268438,8.4303402 L6.34110197,9.86875779 L11.1049437,5.42286098 C11.2389205,5.29754934 11.4502173,5.30421485 11.5755289,5.43819166 C11.7015071,5.57350156 11.694175,5.78413175 11.5595317,5.91010994 M7.99948148,0.000466585873 C3.58891188,0.000466585873 0.000866516624,3.5891785 0.000866516624,7.99908154 C0.000866516624,12.4089846 3.58891188,15.9976965 7.99948148,15.9976965 C12.4093845,15.9976965 15.9980964,12.4089846 15.9980964,7.99908154 C15.9980964,3.5891785 12.4093845,0.000466585873 7.99948148,0.000466585873" id="Fill-11"></path>
            </g>
        </g>
    </g>
</svg>