<?xml version="1.0" encoding="UTF-8"?>
<svg width="24px" height="15px" viewBox="0 0 24 15" version="1.1" xmlns="http://www.w3.org/2000/svg" xmlns:xlink="http://www.w3.org/1999/xlink">
    <!-- Generator: sketchtool 61 (101010) - https://sketch.com -->
    <title>F20A34B2-F6CF-441C-9C7E-21EF1EC07C30@3.00x</title>
    <desc>Created with sketchtool.</desc>
    <defs>
        <polygon id="path-1" points="1.99913755 3.85356213 1.99913755 0.0610473373 0.0502750929 0.0610473373 0.0502750929 3.85356213 1.99913755 3.85356213"></polygon>
    </defs>
    <g id="Kvittering---godkjent-plan" stroke="none" stroke-width="1" fill="none" fill-rule="evenodd">
        <g id="Oppfølgingsplan-godkjent-delt-med-NAV" transform="translate(-207.000000, -667.000000)">
            <g id="NAV-Brand/NAV-logo-/-sort" transform="translate(207.000000, 667.000000)">
                <g id="Page-1">
                    <path d="M11.1799941,14.9948521 C7.01871524,14.9948521 3.64452937,11.6383136 3.64452937,7.49795858 C3.64452937,3.35715976 7.01871524,0 11.1799941,0 C15.3427896,0 18.7173323,3.35715976 18.7173323,7.49795858 C18.7173323,11.6383136 15.3427896,14.9948521 11.1799941,14.9948521 Z" id="Fill-1" fill="#3E3832"></path>
                    <polygon id="Fill-3" fill="#3E3832" points="0 10.7714911 1.54037175 6.97897633 3.02043123 6.97897633 1.4820223 10.7714911"></polygon>
                    <polygon id="Fill-5" fill="#3E3832" points="19.0076431 10.7714911 20.5282974 6.97897633 21.335197 6.97897633 19.814632 10.7714911"></polygon>
                    <g id="Group-9" transform="translate(21.947955, 6.917929)">
                        <mask id="mask-2" fill="white">
                            <use xlink:href="#path-1"></use>
                        </mask>
                        <g id="Clip-8"></g>
                        <polygon id="Fill-7" fill="#3E3832" mask="url(#mask-2)" points="0.0502750929 3.85356213 1.57066171 0.0610473373 1.99918216 0.0610473373 0.4786171 3.85356213"></polygon>
                    </g>
                    <path d="M17.6083628,6.97897633 L16.2686454,6.97897633 C16.2686454,6.97897633 16.1763033,6.97897633 16.1436491,7.06010059 L15.4022364,9.318 L14.6614483,7.06010059 C14.6287941,6.97897633 14.5359167,6.97897633 14.5359167,6.97897633 L11.9599762,6.97897633 C11.9042141,6.97897633 11.8574632,7.02530769 11.8574632,7.08042604 L11.8574632,7.84720118 C11.8574632,7.23894675 11.2068758,6.97897633 10.8259093,6.97897633 C9.97279405,6.97897633 9.40170112,7.53797041 9.22388699,8.38782249 C9.2142513,7.8240355 9.16714349,7.62202367 9.01448922,7.41513018 C8.94436283,7.31376923 8.84300967,7.22856213 8.73264535,7.15808876 C8.50540372,7.02566272 8.30135911,6.97897633 7.8628461,6.97897633 L7.34796134,6.97897633 C7.34796134,6.97897633 7.25490558,6.97897633 7.22207286,7.06010059 L6.75358216,8.21510059 L6.75358216,7.08042604 C6.75358216,7.02530769 6.7071881,6.97897633 6.65151524,6.97897633 L5.4600803,6.97897633 C5.4600803,6.97897633 5.36809517,6.97897633 5.33463792,7.06010059 L4.84758959,8.26107692 C4.84758959,8.26107692 4.79896506,8.38116568 4.91013234,8.38116568 L5.36809517,8.38116568 L5.36809517,10.6696864 C5.36809517,10.7264911 5.41306171,10.7714911 5.47042974,10.7714911 L6.65151524,10.7714911 C6.7071881,10.7714911 6.75358216,10.7264911 6.75358216,10.6696864 L6.75358216,8.38116568 L7.2139539,8.38116568 C7.47813234,8.38116568 7.53407286,8.38835503 7.63685353,8.43601775 C7.69877175,8.45927219 7.75453383,8.50631361 7.78495762,8.56054438 C7.84723271,8.6771716 7.8628461,8.81723077 7.8628461,9.23021893 L7.8628461,10.6696864 C7.8628461,10.7264911 7.90870483,10.7714911 7.96535911,10.7714911 L9.09737398,10.7714911 C9.09737398,10.7714911 9.2253145,10.7714911 9.27590186,10.6458107 L9.52678662,10.0289467 C9.8603777,10.4937692 10.4094335,10.7714911 11.0917829,10.7714911 L11.2408684,10.7714911 C11.2408684,10.7714911 11.3696119,10.7714911 11.4205561,10.6458107 L11.8574632,9.56936095 L11.8574632,10.6696864 C11.8574632,10.7264911 11.9042141,10.7714911 11.9599762,10.7714911 L13.115545,10.7714911 C13.115545,10.7714911 13.2430394,10.7714911 13.2942513,10.6458107 C13.2942513,10.6458107 13.7564074,9.50430178 13.7581918,9.49569231 L13.7589056,9.49569231 C13.7766602,9.40072189 13.6560357,9.40072189 13.6560357,9.40072189 L13.2435747,9.40072189 L13.2435747,7.44202367 L14.5412699,10.6458107 C14.5919465,10.7714911 14.7197086,10.7714911 14.7197086,10.7714911 L16.0848535,10.7714911 C16.0848535,10.7714911 16.2133294,10.7714911 16.2640059,10.6458107 L17.7026677,7.10181657 C17.752452,6.97897633 17.6083628,6.97897633 17.6083628,6.97897633 L17.6083628,6.97897633 Z M11.8574632,9.40072189 L11.081255,9.40072189 C10.7722885,9.40072189 10.5209576,9.15184615 10.5209576,8.84412426 C10.5209576,8.53693491 10.7722885,8.28646154 11.081255,8.28646154 L11.2983257,8.28646154 C11.6064892,8.28646154 11.8574632,8.53693491 11.8574632,8.84412426 L11.8574632,9.40072189 Z" id="Fill-10" fill="#FEFEFE"></path>
                </g>
            </g>
        </g>
    </g>
</svg>