<?xml version="1.0" encoding="UTF-8"?>
<svg width="24px" height="24px" viewBox="0 0 24 24" version="1.1" xmlns="http://www.w3.org/2000/svg" xmlns:xlink="http://www.w3.org/1999/xlink">
    <!-- Generator: sketchtool 61.1 (101010) - https://sketch.com -->
    <title>93BD6786-29C5-452C-85F4-D9624B94D874@3.00x</title>
    <desc>Created with sketchtool.</desc>
    <g id="Kvittering---godkjent-plan" stroke="none" stroke-width="1" fill="none" fill-rule="evenodd">
        <g id="Oppfølgingsplan-godkjent-delt-med-NAV" transform="translate(-443.000000, -878.000000)" fill="#0067C5" fill-rule="nonzero">
            <g id="Gjør-endringer" transform="translate(443.000000, 878.000000)">
                <g id="pencil-2-copy">
                    <path d="M23.2592092,2.87455561 L21.1058425,0.719146775 C20.1489034,-0.239715592 18.4755284,-0.239715592 17.5175745,0.719146775 L16.8001238,1.43727781 C16.8001238,1.43727781 16.8001238,1.43727781 16.8001238,1.43727781 C16.8001238,1.43727781 16.8001238,1.43727781 16.8001238,1.43727781 L1.94676449,16.3077704 C1.94574971,16.3087862 1.94372014,16.3087862 1.94270536,16.3108177 C1.94169058,16.3128492 1.94169058,16.3138649 1.93966102,16.3148807 L1.68799516,16.5667852 C1.62101957,16.6338243 1.57433962,16.718131 1.5530292,16.809548 L0.0136054025,23.3763332 C-0.0269858644,23.5469782 0.0247680009,23.7267649 0.148571365,23.8517014 C0.244975624,23.9481971 0.374867678,24 0.507804077,24 C0.546365781,24 0.584927484,23.995937 0.623489188,23.9867953 L7.18506748,22.4459116 C7.27639784,22.424581 7.36062471,22.3778568 7.4276003,22.3108177 L7.6772366,22.0609446 C7.67926616,22.0589132 7.68129572,22.0589132 7.68332529,22.0568817 C7.68535485,22.0548502 7.68535485,22.0528187 7.68738441,22.0507872 L21.0814877,8.6460132 C21.0855468,8.64195023 21.0916355,8.64093448 21.0956947,8.63687151 C21.0997538,8.63280853 21.1007686,8.62671407 21.1048277,8.62265109 L22.5326255,7.19451498 C22.5356699,7.19146775 22.5407438,7.19045201 22.5448029,7.18638903 C22.548862,7.18232605 22.548862,7.17826308 22.5529211,7.1742001 L23.2612387,6.46521077 C24.2465918,5.47486034 24.2465918,3.8638903 23.2592092,2.87455561 Z M20.7354472,7.55510411 L16.4398763,3.234129 L17.1583418,2.51498222 L21.4650752,6.8257999 L20.7354472,7.55510411 Z M7.32307779,20.9791772 L3.01837394,16.6703911 L15.7224257,3.95226003 L20.0179965,8.27323514 L7.32307779,20.9791772 Z M2.42878578,17.5165058 L6.47776466,21.5693245 L1.1877078,22.8115795 L2.42878578,17.5165058 Z M22.5417585,5.74809548 L22.1825258,6.10766887 L17.8757924,1.79685119 L18.2350251,1.43727781 C18.8083768,0.862366684 19.8130106,0.86135094 20.3883918,1.43727781 L22.5417585,3.59268664 C23.134391,4.18588116 23.134391,5.15286948 22.5417585,5.74809548 Z" id="Shape"></path>
                </g>
            </g>
        </g>
    </g>
</svg>