<?xml version="1.0" encoding="UTF-8" standalone="no"?>
<svg width="152px" height="152px" viewBox="0 0 152 152" version="1.1" xmlns="http://www.w3.org/2000/svg" xmlns:xlink="http://www.w3.org/1999/xlink">
    <!-- Generator: Sketch 46.2 (44496) - http://www.bohemiancoding.com/sketch -->
    <title>Redigert illustrasjon</title>
    <desc>Created with Sketch.</desc>
    <defs>
        <ellipse id="path-1" cx="75.9894895" cy="76.0290043" rx="75.9894895" ry="75.8376623"></ellipse>
        <polygon id="path-3" points="63.5950545 81 0 81 0 40.9223408 0 0.84468169 63.5950545 0.84468169"></polygon>
        <polygon id="path-5" points="0 81 77 81 77 1 0 1"></polygon>
    </defs>
    <g id="Tid-på-infomeldinger-som-går-frem-og-tilbake" stroke="none" stroke-width="1" fill="none" fill-rule="evenodd">
        <g id="AT_Mottatt-endring" transform="translate(-436.000000, -539.000000)">
            <g id="Redigert-illustrasjon" transform="translate(436.000000, 539.000000)">
                <g id="Feilmelding-illustrasjon">
                    <g id="Feilmelding-oppfølging">
                        <g id="Group-11" transform="translate(0.000000, 0.191342)"></g>
                    </g>
                    <mask id="mask-2" fill="white">
                        <use xlink:href="#path-1"></use>
                    </mask>
                    <use id="Mask" fill="#C2EAF7" xlink:href="#path-1"></use>
                </g>
                <g id="Page-1" transform="translate(36.000000, 36.000000)">
                    <g id="Group-3">
                        <mask id="mask-4" fill="white">
                            <use xlink:href="#path-3"></use>
                        </mask>
                        <g id="Clip-2"></g>
                        <path d="M0,14.192569 L0,76.9493155 C0,79.1865127 1.85018182,81.0004563 4.13207273,81.0004563 L59.4629818,81.0004563 C61.7448727,81.0004563 63.5950545,79.1865127 63.5950545,76.9493155 L63.5950545,4.89582254 C63.5950545,2.65862535 61.7448727,0.84468169 59.4629818,0.84468169 L14.3813818,0.84468169 L0,14.192569 Z" id="Fill-1" fill="#FFFFFF" mask="url(#mask-4)"></path>
                    </g>
                    <path d="M14,1 L14,10.0544444 C14,12.2333333 12.1988834,14 9.97750627,14 L0,14 L14,1 Z" id="Fill-4" fill="#C6C6C5"></path>
                    <mask id="mask-6" fill="white">
                        <use xlink:href="#path-5"></use>
                    </mask>
                    <g id="Clip-7"></g>
                    <polygon id="Fill-6" fill="#9B9C9C" mask="url(#mask-6)" points="10 36 53 36 53 32 10 32"></polygon>
                    <polygon id="Fill-8" fill="#9B9C9C" mask="url(#mask-6)" points="10 43 53 43 53 39 10 39"></polygon>
                    <polygon id="Fill-9" fill="#9B9C9C" mask="url(#mask-6)" points="10 51 53 51 53 47 10 47"></polygon>
                    <polygon id="Fill-10" fill="#9B9C9C" mask="url(#mask-6)" points="10 59 53 59 53 55 10 55"></polygon>
                    <path d="M69.2282222,26.2057238 L62.7942762,19.7717778 C61.7352413,18.7127429 61.7352413,16.9956014 62.7942762,15.9365665 L65.9365665,12.7942762 C66.9956014,11.7352413 68.7127429,11.7352413 69.7717778,12.7942762 L76.2057238,19.2282222 C77.2647587,20.2872571 77.2647587,22.0043986 76.2057238,23.0634335 L73.0634335,26.2057238 C72.0043986,27.2647587 70.2872571,27.2647587 69.2282222,26.2057238" id="Fill-11" fill="#C5232A" mask="url(#mask-6)"></path>
                    <polygon id="Fill-12" fill="#E9D8BD" mask="url(#mask-6)" points="41.2871648 37 34 55 52 47.7128352 47.9123926 40.6611559"></polygon>
                    <polygon id="Fill-13" fill="#EEC85D" mask="url(#mask-6)" points="66 20.5064272 62.4935728 17 43 36.4947232 46.5064272 40"></polygon>
                    <polygon id="Fill-14" fill="#E2B954" mask="url(#mask-6)" points="49.5064272 43 69 23.5064272 65.4947232 20 46 39.4935728"></polygon>
                    <polygon id="Fill-15" fill="#EEC85D" mask="url(#mask-6)" points="68.4935728 24 49 43.4935728 52.5052768 47 72 27.5064272"></polygon>
                    <path d="M41.3522569,38.6002024 C41.9311838,39.1821862 43.0507782,38.832996 43.8230164,39.6093117 C43.9478632,39.7348178 44.0304232,39.8653846 44.0898262,40 L45,39.0850202 L41.9311838,36 L41.0824266,36.854251 C41.0824266,36.854251 40.7733299,38.0182186 41.3522569,38.6002024" id="Fill-16" fill="#EEC85D" mask="url(#mask-6)"></path>
                    <path d="M45,40.9149798 C45.3117409,41.6143725 44.9291498,42.4281377 45.75,43.25 C46.5718623,44.0708502 47.3856275,43.6882591 48.0850202,44 L49,43.0850202 L45.9149798,40 L45,40.9149798 Z" id="Fill-17" fill="#E2B954" mask="url(#mask-6)"></path>
                    <path d="M48,44.9101738 C48.1346154,44.9695768 48.2661943,45.0521368 48.3906883,45.1769836 C49.167004,45.9492218 48.8178138,47.0688162 49.3997976,47.6477431 C49.9817814,48.2266701 51.1467611,47.9175734 51.1467611,47.9175734 L52,47.0688162 L48.9149798,44 L48,44.9101738 Z" id="Fill-18" fill="#EEC85D" mask="url(#mask-6)"></path>
                    <polygon id="Fill-19" fill="#5C5B5A" mask="url(#mask-6)" points="34 55 40 52.571087 36.428913 49"></polygon>
                    <polygon id="Fill-20" fill="#5C5B5A" mask="url(#mask-6)" points="72.5639742 28 62 17.4350087 63.4360258 16 74 26.5638359"></polygon>
                </g>
            </g>
        </g>
    </g>
</svg>