<svg width="100" height="100" fill="none" xmlns="http://www.w3.org/2000/svg"><path fill-rule="evenodd" clip-rule="evenodd" d="M50 100c27.614 0 50-22.386 50-50S77.614 0 50 0 0 22.386 0 50s22.386 50 50 50z" fill="#669DB4"/><path fill-rule="evenodd" clip-rule="evenodd" d="M24 42s23.9-20.844 24.667-21.487c.767-.644 1.91-.671 2.666 0C52.09 21.183 76 42 76 42L49.175 65.845 24 42z" fill="#FFA733"/><rect x="29" y="31" width="42" height="40" rx="2" fill="#fff"/><path fill-rule="evenodd" clip-rule="evenodd" d="M63 43H37v-2h26v2zm0 5H37v-2h26v2zm-26 5h26v-2H37v2zm26 5H37v-2h26v2z" fill="#C9C9C9"/><path fill-rule="evenodd" clip-rule="evenodd" d="M25.95 76h42.031C69.058 76 24 42 24 42v32.074c0 1.063.874 1.926 1.95 1.926z" fill="#FFD399"/><path fill-rule="evenodd" clip-rule="evenodd" d="M74.05 76H32.02C30.942 76 76 42 76 42v32.074A1.938 1.938 0 0174.05 76z" fill="#FFD399"/></svg>