<?xml version="1.0" encoding="UTF-8" standalone="no"?>
<svg width="152px" height="152px" viewBox="0 0 152 152" version="1.1" xmlns="http://www.w3.org/2000/svg" xmlns:xlink="http://www.w3.org/1999/xlink">
    <!-- Generator: Sketch 44.1 (41455) - http://www.bohemiancoding.com/sketch -->
    <title>Feilmelding illustrasjon</title>
    <desc>Created with Sketch.</desc>
    <defs>
        <ellipse id="path-1" cx="75.9894895" cy="76.0290043" rx="75.9894895" ry="75.8376623"></ellipse>
        <polygon id="path-3" points="81.2411273 52.4626243 81.2411273 0.411805556 0 0.411805556 0 52.4626243 0 104.513443 81.2411273 104.513443"></polygon>
        <polygon id="path-5" points="0 104.588194 81.2411273 104.588194 81.2411273 0.486111111 0 0.486111111"></polygon>
    </defs>
    <g id="VOL-4-(pilot)" stroke="none" stroke-width="1" fill="none" fill-rule="evenodd">
        <g id="Motatt,-avslått-plan" transform="translate(-439.000000, -539.000000)">
            <g id="Feilmelding-illustrasjon" transform="translate(439.000000, 539.000000)">
                <g id="Feilmelding-oppfølging">
                    <g id="Group-11" transform="translate(0.000000, 0.191342)"></g>
                </g>
                <mask id="mask-2" fill="white">
                    <use xlink:href="#path-1"></use>
                </mask>
                <use id="Mask" fill="#E2AFA7" xlink:href="#path-1"></use>
                <g id="Page-1" mask="url(#mask-2)">
                    <g transform="translate(35.000000, 49.000000)">
                        <g id="Group-3" stroke="none" stroke-width="1" fill="none" fill-rule="evenodd" transform="translate(0.000000, 0.074306)">
                            <mask id="mask-4" fill="white">
                                <use xlink:href="#path-3"></use>
                            </mask>
                            <g id="Clip-2"></g>
                            <path d="M0,17.7468458 L0,99.2540958 C0,102.159443 2.36309091,104.513443 5.27930909,104.513443 L75.9648,104.513443 C78.8795273,104.513443 81.2411273,102.159443 81.2411273,99.2540958 L81.2411273,5.67219306 C81.2411273,2.76684583 78.8795273,0.411359722 75.9648,0.411359722 L18.3724727,0.411359722 L0,17.7468458 Z" id="Fill-1" fill="#E4E4DB" mask="url(#mask-4)"></path>
                        </g>
                        <path d="M18.3727709,0.486111111 L18.3727709,12.5592778 C18.3727709,15.4661111 16.00968,17.8215972 13.0934618,17.8215972 L0.000298181818,17.8215972 L18.3727709,0.486111111 Z" id="Fill-4" stroke="none" fill="#BBBCBC" fill-rule="evenodd"></path>
                        <mask id="mask-6" fill="white">
                            <use xlink:href="#path-5"></use>
                        </mask>
                        <g id="Clip-7" stroke="none" fill="none"></g>
                        <polygon id="Fill-11" stroke="none" fill="#C30000" fill-rule="evenodd" mask="url(#mask-6)" transform="translate(42.293786, 53.293786) rotate(-45.000000) translate(-42.293786, -53.293786) " points="17.1913495 55.476883 67.3962222 55.476883 67.3962222 51.1106886 17.1913495 51.1106886"></polygon>
                        <polygon id="Fill-11-Copy" stroke="none" fill="#C30000" fill-rule="evenodd" mask="url(#mask-6)" transform="translate(42.293786, 53.293786) rotate(-315.000000) translate(-42.293786, -53.293786) " points="17.1913495 55.476883 67.3962222 55.476883 67.3962222 51.1106886 17.1913495 51.1106886"></polygon>
                    </g>
                </g>
            </g>
        </g>
    </g>
</svg>