<?xml version="1.0" encoding="UTF-8" standalone="no"?>
<svg width="143px" height="143px" viewBox="0 0 143 143" version="1.1" xmlns="http://www.w3.org/2000/svg" xmlns:xlink="http://www.w3.org/1999/xlink">
    <!-- Generator: Sketch 43.2 (39069) - http://www.bohemiancoding.com/sketch -->
    <title>Samtykke illustrasjon</title>
    <desc>Created with Sketch.</desc>
    <defs>
        <circle id="path-1" cx="71.5" cy="71.5" r="71.5"></circle>
        <polygon id="path-3" points="42.8340782 0.135736343 42.8340782 31.4933511 0.000237045258 31.4933511 0.000237045258 0.135736343 42.8340782 0.135736343"></polygon>
        <polygon id="path-5" points="2.4887625 0.0921780731 15.2609737 0.0921780731 15.2609737 13.4800016 1.24344979e-14 13.4800016 1.24344979e-14 0.0921780731 2.4887625 0.0921780731 1.64861403e-05 0.0920206063 1.64861403e-05 3.37789887 2.4887625 3.37789887 2.4887625 0.0921780731"></polygon>
        <polygon id="path-7" points="0.129639424 0.0921780731 2.61838544 0.0921780731 2.61838544 3.37789887 0.129639424 3.37789887 0.129639424 0.0921780731"></polygon>
        <polygon id="path-9" points="0.129639424 0.0921780731 2.61838544 0.0921780731 2.61838544 3.37789887 0.129639424 3.37789887 0.129639424 0.0921780731"></polygon>
        <polygon id="path-11" points="5.97587707e-15 43.3553541 5.97587707e-15 0.414176332 47.578485 0.414176332 47.578485 43.3553541 0 43.3553541"></polygon>
        <polygon id="path-13" points="37.7756863 28.1226503 0.00559816036 28.1226503 0.00559816036 0.0949842513 37.7756863 0.0949842513 37.7756863 28.1226503"></polygon>
        <polygon id="path-15" points="0 64.9712668 47.5787649 64.9712668 47.5787649 0.703277177 0 0.703277177"></polygon>
        <polygon id="path-17" points="36.6119916 0.0802168785 36.6119916 39.5458812 0.225936359 39.5458812 0.225936359 0.0802168785"></polygon>
        <polygon id="path-19" points="40.2674462 0.186727067 40.2674462 29.709955 0.000374107605 29.709955 0.000374107605 0.186727067 40.2674462 0.186727067"></polygon>
    </defs>
    <g id="Onboarding-sider" stroke="none" stroke-width="1" fill="none" fill-rule="evenodd">
        <g id="AT_Samtykkemelding_med-overskifter" transform="translate(-456.000000, -385.000000)">
            <g id="Samtykke-illustrasjon" transform="translate(456.000000, 385.000000)">
                <g id="Page-1">
                    <mask id="mask-2" fill="white">
                        <use xlink:href="#path-1"></use>
                    </mask>
                    <use id="Mask" fill="#C2EAF7" xlink:href="#path-1"></use>
                    <g id="Group-11" mask="url(#mask-2)">
                        <g transform="translate(46.000000, 74.000000)">
                            <g id="Page-1" stroke="none" stroke-width="1" fill-rule="evenodd" transform="translate(-0.000000, 0.000000)">
                                <g id="Group-3" transform="translate(-0.000000, 44.625689)">
                                    <mask id="mask-4" fill="white">
                                        <use xlink:href="#path-3"></use>
                                    </mask>
                                    <g id="Clip-2"></g>
                                    <path d="M27.7163588,0.135736343 L21.316927,0.135736343 L14.9174952,0.135736343 C11.4676965,0.135736343 0.000237045258,7.4185738 0.000237045258,14.0487115 L0.000237045258,31.4936661 L42.8343152,31.4936661 L42.8343152,14.0487115 C42.8343152,7.4185738 31.1661575,0.135736343 27.7163588,0.135736343" id="Fill-1" fill="#8FA24D" mask="url(#mask-4)"></path>
                                </g>
                                <path d="M27.3380346,44.25328 C26.5984534,44.25328 21.3162949,46.5050546 21.3162949,46.5050546 C21.3162949,46.5050546 15.0985977,44.741427 14.6189762,44.6477342 C14.1385644,44.5540415 10.6784938,46.3806559 10.6784938,46.3806559 C11.5452893,47.6506253 14.01056,53.5572033 21.3162949,53.5572033 C28.6228199,53.5572033 31.0944118,47.6506253 31.9627876,46.3806559 C31.9627876,46.3806559 28.0776158,44.25328 27.3380346,44.25328" id="Fill-4" fill="#E6E4E1"></path>
                                <path d="M5.22052674,25.8892708 C5.22052674,25.8892708 5.13677075,26.0593349 5.02693978,25.9829635 C4.87523081,25.9239134 4.8673293,25.8892708 4.69507642,25.8892708 C3.9460134,25.8892708 3.49641756,26.4931558 3.49641756,27.2387609 L3.49641756,32.6902599 C3.49641756,33.435865 3.9460134,34.03975 4.69507642,34.03975 C4.99454359,34.03975 5.19129116,33.940546 5.41490385,33.7752059 C7.23778189,42.0800026 13.6624985,48.2196314 21.3561975,48.2196314 C29.0498964,48.2196314 35.4927865,42.0800026 37.3156646,33.7752059 C37.5400674,33.940546 37.7478771,34.03975 38.0481344,34.03975 C38.7971974,34.03975 39.3368705,33.435865 39.3368705,32.6902599 L39.3368705,27.2387609 C39.3368705,26.4931558 38.7861353,25.8892708 38.0394428,25.8892708 C37.8656096,25.8892708 37.7304938,25.9239134 37.5779947,25.9829635 C20.2286522,27.9883026 5.22052674,25.8892708 5.22052674,25.8892708" id="Fill-6" fill="#E6E4E1"></path>
                                <polyline id="Fill-8" fill="#FEFEFE" points="31.8374696 46.1655563 13.9421329 76.1188826 34.0925602 76.1188826 34.0925602 47.374901"></polyline>
                                <polyline id="Fill-10" fill="#FEFEFE" points="10.5766434 46.0332842 19.7131578 75.2480914 16.6094452 75.2480914"></polyline>
                                <path d="M37.9070925,29.1074976 C37.9070925,39.7215443 30.5239228,48.3255278 21.416644,48.3255278 C12.3101553,48.3255278 4.92698569,39.7215443 4.92698569,29.1074976 C4.92698569,18.4950256 12.3101553,9.89104205 21.416644,9.89104205 C30.5239228,9.89104205 37.9070925,18.4950256 37.9070925,29.1074976" id="Fill-12" fill="#E6E4E1"></path>
                                <path d="M8.6876297,15.9950834 C8.20800813,16.3045055 4.67366333,18.0043592 4.51642331,26.7996648 C4.49113848,28.1798609 4.59069749,29.5498217 5.24889315,29.5136043 L6.39066115,29.5143917 C6.75334039,24.4116815 7.70073128,20.6899547 8.65918427,19.3302293 C11.2761639,15.6210998 9.18384444,15.7517972 8.6876297,15.9950834" id="Fill-14" fill="#333332"></path>
                                <path d="M34.2544621,15.9950834 C34.7340837,16.3045055 38.2684285,18.0043592 38.4256685,26.7996648 C38.4509533,28.1798609 38.3513943,29.5498217 37.6931986,29.5136043 L36.5514307,29.5143917 C36.1887514,24.4116815 35.2413605,20.6899547 34.2829075,19.3302293 C31.6659279,15.6210998 33.7582474,15.7517972 34.2544621,15.9950834" id="Fill-16" fill="#333332"></path>
                                <g id="Group-20" transform="translate(1.580302, 0.093667)" fill="#FCBC68">
                                    <path d="M37.6797661,21.7307572 C37.3937315,12.450454 31.4739212,4.77867365 23.6348345,2.87411324 L23.6348345,0.123956347 L16.0383241,0.123956347 L16.0383241,2.87411324 C8.19923746,4.77867365 2.2794272,12.450454 1.99339259,21.7307572 L0.0456707198,21.7307572 L0.0456707198,25.3871353 L39.627488,25.3871353 L39.627488,21.7307572 L37.6797661,21.7307572 Z" id="Fill-18"></path>
                                </g>
                                <path d="M21.2575076,40.8306613 C18.5164743,40.8306613 16.2945701,39.7378421 16.2945701,38.3899266 C16.2945701,37.0420112 18.5164743,35.9491919 21.2575076,35.9491919 C23.998541,35.9491919 26.2204452,37.0420112 26.2204452,38.3899266 C26.2204452,39.7378421 23.998541,40.8306613 21.2575076,40.8306613 M27.4957487,35.4909637 C25.0233666,33.8414994 23.6105769,34.0792742 21.3104477,34.0792742 C19.0103186,34.0792742 17.2411708,34.2894923 14.4282337,35.6791364 C7.37850776,39.1615137 5.20480274,32.6778201 5.04835287,29.1537141 L4.7615281,29.0277407 C4.7615281,43.4233515 14.9955621,48.3906403 21.2053577,48.3906403 C27.513132,48.3906403 37.6420759,43.8083577 37.9913226,29.0277407 L37.5986176,29.3190542 C36.9957325,33.0502289 34.9010425,40.4314831 27.4957487,35.4909637" id="Fill-21" fill="#B9B7B4"></path>
                            </g>
                            <g id="Group-10" stroke="none" stroke-width="1" fill-rule="evenodd" transform="translate(13.432565, 27.678742)">
                                <g id="Page-1">
                                    <g id="Group-5" transform="translate(0.000000, 0.003307)">
                                        <mask id="mask-6" fill="white">
                                            <use xlink:href="#path-5"></use>
                                        </mask>
                                        <g id="Clip-4"></g>
                                        <path d="M1.25017669,3.37520246 C0.106828396,3.44842451 -0.213182702,2.01390236 0.131323073,1.0777625 C0.196115444,0.899825063 0.574597706,0.0920206063 1.24464564,0.0920206063 C1.91390342,0.0920206063 2.20941984,0.533714856 2.25050768,0.609298899 C2.74277167,1.52260608 2.50177566,3.29489442 1.25017669,3.37520246" id="Fill-3" fill="#625D58" mask="url(#mask-6)"></path>
                                    </g>
                                    <g id="Group-8" transform="translate(12.642414, 0.000000)">
                                        <mask id="mask-8" fill="white">
                                            <use xlink:href="#path-7"></use>
                                        </mask>
                                        <g id="Clip-7"></g>
                                        <path d="M1.36822523,3.37520246 C2.51157353,3.44842451 2.83158463,2.01390236 2.48707885,1.0777625 C2.42228648,0.899825063 2.04380422,0.0920206063 1.37375629,0.0920206063 C0.704498508,0.0920206063 0.408982086,0.533714856 0.367894241,0.609298899 C-0.124369746,1.52260608 0.116626267,3.29489442 1.36822523,3.37520246" id="Fill-6" fill="#625D58" mask="url(#mask-8)"></path>
                                    </g>
                                    <g id="Group-8-Copy" transform="translate(1.580302, 0.000000)">
                                        <mask id="mask-10" fill="white">
                                            <use xlink:href="#path-9"></use>
                                        </mask>
                                        <g id="Clip-7"></g>
                                        <path d="M1.36822523,3.37520246 C2.51157353,3.44842451 2.83158463,2.01390236 2.48707885,1.0777625 C2.42228648,0.899825063 2.04380422,0.0920206063 1.37375629,0.0920206063 C0.704498508,0.0920206063 0.408982086,0.533714856 0.367894241,0.609298899 C-0.124369746,1.52260608 0.116626267,3.29489442 1.36822523,3.37520246" id="Fill-6" fill="#625D58" mask="url(#mask-10)"></path>
                                    </g>
                                    <path d="M7.93271957,5.20063583 C8.61620006,5.09592044 9.28308739,5.12111512 9.59519698,5.50375933 C10.3576926,6.4375372 10.1388208,7.51539714 8.85561578,8.31139159 C8.21322313,8.70899515 7.30454964,8.87197324 6.74749328,8.6263251" id="Stroke-9" stroke="#D0BEA3" stroke-width="0.506" stroke-linecap="round"></path>
                                </g>
                            </g>
                            <path d="M25.910825,37.2842105 C25.910825,37.2842105 24.8083683,39.804129 21.7410299,39.7102415 C18.6736916,39.6163539 17.5235904,37.2842105 17.5235904,37.2842105" id="Stroke-23" stroke="#625D58" stroke-width="1.013" stroke-linecap="round"></path>
                        </g>
                    </g>
                    <g id="Group" mask="url(#mask-2)">
                        <g transform="translate(118.000000, 71.000000) rotate(-60.000000) translate(-118.000000, -71.000000) translate(94.000000, 38.000000)" id="Page-1">
                            <g>
                                <g id="Group-3" transform="translate(0.000000, 0.289171)">
                                    <mask id="mask-12" fill="white">
                                        <use xlink:href="#path-11"></use>
                                    </mask>
                                    <g id="Clip-2"></g>
                                    <path d="M42.4729627,21.5005395 L42.4358749,21.5005395 C42.4358749,9.85495003 34.079221,0.414176332 23.7709085,0.414176332 C13.4618962,0.414176332 5.10524234,9.85495003 5.10524234,21.5005395 L5.10524234,21.5110855 C5.10174349,31.4566608 -0.000279908018,37.1423576 -0.000279908018,37.1423576 C-0.000279908018,37.1423576 5.03806441,43.3553541 23.7709085,43.3553541 L23.7891025,43.3553541 L23.8072966,43.3553541 C42.5401407,43.3553541 47.578485,37.1423576 47.578485,37.1423576 C47.578485,37.1423576 42.4729627,31.4524424 42.4729627,21.5005395" id="Fill-1" fill="#E57F68" mask="url(#mask-12)"></path>
                                </g>
                                <g id="Group-6" transform="translate(4.898390, 36.848617)">
                                    <mask id="mask-14" fill="white">
                                        <use xlink:href="#path-13"></use>
                                    </mask>
                                    <g id="Clip-5"></g>
                                    <path d="M24.5927185,0.0949842513 L18.8909921,0.0949842513 L13.1892658,0.0949842513 C10.115176,0.0949842513 0.00559816036,6.49288719 0.00559816036,12.4499676 L0.00559816036,28.1227206 L37.7756863,28.1227206 L37.7756863,12.4499676 C37.7756863,6.49288719 27.6668083,0.0949842513 24.5927185,0.0949842513" id="Fill-4" fill="#624B7F" mask="url(#mask-14)"></path>
                                </g>
                                <path d="M40.2381071,19.3324941 C40.13804,18.7496522 39.6363049,18.3060174 39.0289045,18.3060174 C38.872156,18.3060174 38.723105,18.3383584 38.5859501,18.3917914 C38.567756,18.3939006 38.5509616,18.3946037 38.5334673,18.3967129 C33.9730659,12.1577029 25.0796884,17.9137064 18.2926188,11.9559229 C17.4228046,11.0236571 16.9686538,10.3747269 16.8496929,10.3747269 C16.8496929,10.3747269 10.2669561,16.1089353 9.17111623,18.3060174 C9.17111623,18.3060174 9.09344176,18.4628011 8.99407441,18.3917914 C8.85621971,18.3383584 8.70786846,18.3060174 8.55111997,18.3060174 C7.94232003,18.3060174 7.43988514,18.7503552 7.34051779,19.3324941 C7.31532607,19.4309234 7.29783182,19.532868 7.29783182,19.639031 L7.29783182,24.6378321 C7.29783182,25.3212125 7.84925062,25.8759317 8.53012687,25.8759317 C8.80303719,25.8759317 9.05215532,25.7838301 9.25648818,25.6326708 C10.3334343,30.579445 13.1968933,34.6762121 16.9847486,36.9485222 C15.9301951,37.3900478 14.3067286,38.2541163 14.3067286,38.2541163 C15.0799745,39.3944897 17.2758529,44.7012338 23.7858136,44.7012338 C30.2957743,44.7012338 32.4979507,39.3951928 33.2718963,38.2541163 C33.2718963,38.2541163 31.8541622,37.4730097 30.6596548,36.9098536 C34.4153206,34.6291066 37.2514886,30.5506193 38.3221368,25.6326708 C38.5257698,25.7838301 38.7755877,25.8759317 39.0484981,25.8759317 C39.7293743,25.8759317 40.2807931,25.3212125 40.2807931,24.6378321 L40.2807931,19.639031 C40.2807931,19.532868 40.2632989,19.4309234 40.2381071,19.3324941" id="Fill-7" fill="#E7E5E2"></path>
                                <path d="M38.3704209,59.5244719 L26.6730648,59.5244719 C26.1510364,59.5244719 25.7276755,59.0991168 25.7276755,58.5753324 L25.7276755,52.256876 C25.7276755,51.7323886 26.1510364,51.3070335 26.6730648,51.3070335 L38.3704209,51.3070335 C38.8924493,51.3070335 39.3151105,51.7323886 39.3151105,52.256876 L39.3151105,58.5753324 C39.3151105,59.0991168 38.8924493,59.5244719 38.3704209,59.5244719" id="Fill-9" fill="#D2242A"></path>
                                <path d="M35.6025505,55.5565065 C35.6025505,57.2101184 34.2687888,58.5522719 32.6229296,58.5522719 C30.9742714,58.5522719 29.6398099,57.2101184 29.6398099,55.5565065 C29.6398099,53.9028947 30.9742714,52.5607412 32.6229296,52.5607412 C34.2687888,52.5607412 35.6025505,53.9028947 35.6025505,55.5565065" id="Fill-11" fill="#FFFFFF"></path>
                                <polygon id="Fill-13" fill="#FFFFFF" points="28.7605488 56.8769353 28.1790399 56.8769353 28.8004357 55.345657 29.3833442 55.345657"></polygon>
                                <path d="M30.3579839,56.8695531 L30.8156335,56.8695531 C30.8401255,56.8695531 30.8583195,56.8512734 30.8583195,56.8280722 L30.8583195,55.3959262 C30.8583195,55.372725 30.8401255,55.3551484 30.8156335,55.3551484 L30.3530855,55.3551484 C30.3229954,55.3551484 30.299903,55.3783495 30.299903,55.4085814 L30.1179628,55.8592469 C30.1067665,55.8824481 30.1256602,55.9105707 30.1501522,55.9105707 L30.2803094,55.9105707 C30.299903,55.9105707 30.3166975,55.9253351 30.3166975,55.9471301 L30.3166975,56.8280722 C30.3166975,56.8512734 30.3348915,56.8695531 30.3579839,56.8695531" id="Fill-19" fill="#C52D35"></path>
                                <path d="M31.3524271,56.8695531 L31.8114763,56.8695531 C31.8359682,56.8695531 31.8555618,56.8512734 31.8555618,56.8280722 L31.8555618,55.3959262 C31.8555618,55.372725 31.8359682,55.3551484 31.8114763,55.3551484 L31.0984106,55.3551484 C31.0683205,55.3551484 31.0438285,55.3783495 31.0438285,55.4085814 L30.8618883,55.8592469 L30.798909,55.9105707 L31.1634892,55.9105707 C31.2446625,55.9105707 31.3111407,55.9752528 31.3111407,56.0582146 L31.3111407,56.8280722 C31.3111407,56.8512734 31.3293347,56.8695531 31.3524271,56.8695531" id="Fill-21" fill="#C52D35"></path>
                                <path d="M33.4054824,55.3545859 L32.9464333,55.3545859 C32.9233409,55.3545859 32.9044471,55.3728656 32.9044471,55.3960668 L32.9044471,56.8282128 C32.9044471,56.851414 32.9233409,56.8689906 32.9464333,56.8689906 L33.4103808,56.8689906 C33.4404709,56.8689906 33.4635634,56.8457894 33.4635634,56.8155576 L33.6455036,56.3648921 C33.6566999,56.3402848 33.6392056,56.3135683 33.6112148,56.3135683 L33.4838567,56.3135683 C33.4635634,56.3135683 33.4488682,56.2966947 33.4488682,56.278415 L33.4488682,55.3960668 C33.4488682,55.3728656 33.4271753,55.3545859 33.4054824,55.3545859" id="Fill-23" fill="#C52D35"></path>
                                <path d="M31.517083,56.8695531 L31.8186839,56.8695531 C31.8480742,56.8695531 31.8718664,56.8449458 31.8718664,56.81612 L32.0538066,56.3640484 C32.0643032,56.3401442 32.0468089,56.3134277 32.0202177,56.3134277 L31.8928595,56.3134277 L31.517083,56.8695531 Z" id="Fill-25" fill="#C52D35"></path>
                                <path d="M34.6335789,55.3545859 L35.1800993,55.3545859 C35.2066905,55.3545859 35.2248846,55.3798963 35.2136882,55.4045036 L34.6356782,56.8464925 C34.6314796,56.8612569 34.6181839,56.8689906 34.6020892,56.8689906 L34.1080516,56.8689906 L34.5985904,55.3791932 C34.6034888,55.3644288 34.6181839,55.3545859 34.6335789,55.3545859" id="Fill-27" fill="#C52D35"></path>
                                <path d="M33.9492737,55.3545859 L33.1774274,55.3545859 C33.1228453,55.3545859 33.3992545,55.4080189 33.4188481,55.4579366 L33.9646687,56.8225883 C33.975865,56.8528201 34.0038558,56.8689906 34.0339459,56.8689906 L34.5027919,56.8689906 L34.0206503,55.4059097 C34.0108535,55.3735687 33.9814632,55.3545859 33.9492737,55.3545859" id="Fill-29" fill="#C52D35"></path>
                                <path d="M32.4678606,55.3545859 C32.7232766,55.3545859 32.9416049,55.5310555 32.9416049,55.8404047 C32.9416049,56.1455354 32.9024178,56.1638152 32.9024178,56.1638152 C32.9024178,56.1638152 32.859032,55.8713396 32.6351056,55.8713396 C32.414678,55.8713396 32.3635948,56.0007038 32.3635948,56.0970239 C32.3635948,56.2088114 32.4762578,56.3135683 32.5392371,56.3135683 L32.9416049,56.3135683 L32.7043828,56.841571 C32.6952858,56.8591477 32.6791911,56.8689906 32.6602973,56.8689906 L32.4776573,56.8689906 C32.2866201,56.8689906 31.7876841,56.617996 31.7876841,56.1307711 C31.7876841,55.6428431 32.1578624,55.3545859 32.4678606,55.3545859" id="Fill-31" fill="#C52D35"></path>
                                <path d="M33.2907901,52.1633682 L32.0249061,52.1633682 C31.9311369,52.1633682 31.8555618,52.087437 31.8555618,51.9932261 L31.8555618,51.7787909 C31.8555618,51.6852831 31.9311369,51.6086489 32.0249061,51.6086489 L33.2907901,51.6086489 C33.3845593,51.6086489 33.4601345,51.6852831 33.4601345,51.7787909 L33.4601345,51.9932261 C33.4601345,52.087437 33.3845593,52.1633682 33.2907901,52.1633682" id="Fill-33" fill="#5A1F57"></path>
                                <mask id="mask-16" fill="white">
                                    <use xlink:href="#path-15"></use>
                                </mask>
                                <g id="Clip-36"></g>
                                <polygon id="Fill-35" fill="#835184" mask="url(#mask-16)" points="32.2908887 51.9399337 33.0242477 51.9399337 33.0242477 49.7351179 32.2908887 49.7351179"></polygon>
                            </g>
                            <g transform="translate(16.794481, 18.982789)">
                                <path d="M1.10717616,3.432721 C0.0946089101,3.50935522 -0.188797958,2.0097149 0.116301781,1.0303436 C0.173682925,0.844734108 0.508872777,0.000351533128 1.10227777,0.000351533128 C1.694983,0.000351533128 1.956697,0.461562998 1.99308504,0.541009485 C2.42904178,1.49577346 2.21561192,3.34835305 1.10717616,3.432721" id="Fill-1" fill="#635E59"></path>
                                <path d="M12.4080425,3.432721 C13.4206098,3.50935522 13.7040167,2.0097149 13.3989169,1.0303436 C13.3415358,0.844734108 13.0063459,0.000351533128 12.4129409,0.000351533128 C11.8202357,0.000351533128 11.5585217,0.461562998 11.5221337,0.541009485 C11.0861769,1.49577346 11.2996068,3.34835305 12.4080425,3.432721" id="Fill-3" fill="#635E59"></path>
                                <path d="M7.02534137,4.80953565 C7.63064245,4.71602784 8.22124837,4.73852596 8.49765754,5.08021616 C9.17293563,5.91405274 8.97909933,6.87655045 7.84267278,7.58735043 C7.27375973,7.94239889 6.46902418,8.08793361 5.9756863,7.86857693" id="Stroke-5" stroke="#D1BFA3" stroke-width="0.506" stroke-linecap="round"></path>
                                <path d="M11.3877778,10.4234494 C11.3877778,10.4234494 10.1085982,13.3671878 6.54956771,13.2575095 C2.99053726,13.1478311 1.65607579,10.4234494 1.65607579,10.4234494" id="Stroke-7" stroke="#593A32" stroke-width="1.013" stroke-linecap="round"></path>
                            </g>
                        </g>
                    </g>
                    <g id="Group-21" mask="url(#mask-2)">
                        <g transform="translate(23.809789, 74.978658) rotate(-315.000000) translate(-23.809789, -74.978658) translate(2.809789, 39.978658)" id="Leder-illustrasjon">
                            <g>
                                <g id="Page-1">
                                    <g id="Group">
                                        <g id="Group-7">
                                            <g id="Group-2">
                                                <g id="Page-1" transform="translate(0.298189, 0.499985)">
                                                    <g id="Group-3" transform="translate(1.496430, 0.087199)">
                                                        <mask id="mask-18" fill="white">
                                                            <use xlink:href="#path-17"></use>
                                                        </mask>
                                                        <g id="Clip-2"></g>
                                                        <path d="M36.1179943,16.911352 C37.3839744,22.0378048 36.183089,32.6917946 32.9014171,39.5458812 C27.8345037,36.0609035 10.0052834,36.8363333 4.54780169,39.3497955 C4.54780169,39.3497955 -0.22431492,31.5152804 0.260528536,19.715229 C0.260528536,19.715229 1.97693423,-0.11245218 18.3172062,0.0814052767 C34.6559818,0.275262733 36.1179943,16.911352 36.1179943,16.911352" id="Fill-1" fill="#38383A" mask="url(#mask-18)"></path>
                                                    </g>
                                                    <g id="Group-6" transform="translate(0.000000, 38.134510)">
                                                        <mask id="mask-20" fill="white">
                                                            <use xlink:href="#path-19"></use>
                                                        </mask>
                                                        <g id="Clip-5"></g>
                                                        <path d="M26.2118494,0.186727067 L20.1326008,0.186727067 L14.0548486,0.186727067 C10.7761696,0.186727067 0.000374107605,6.92568761 0.000374107605,13.2004301 L0.000374107605,29.7102521 L40.2678203,29.7102521 L40.2678203,13.2004301 C40.2678203,6.92568761 29.489032,0.186727067 26.2118494,0.186727067" id="Fill-4" fill="#105573" mask="url(#mask-20)"></path>
                                                    </g>
                                                    <path d="M4.86886084,28.0228752 L3.52282168,28.0228752 C3.18313197,28.0228752 2.90853699,27.7495436 2.90853699,27.4145639 L2.90853699,20.9184822 C2.90853699,20.5835025 3.18313197,20.3101709 3.52282168,20.3101709 L4.86886084,20.3101709 C5.20780233,20.3101709 5.4816491,20.5835025 5.4816491,20.9184822 L5.4816491,27.4145639 C5.4816491,27.7495436 5.20780233,28.0228752 4.86886084,28.0228752" id="Fill-7" fill="#E7E5E2"></path>
                                                    <path d="M25.5241648,37.3633879 C24.8829443,37.3633879 20.3001262,39.1014203 20.3001262,39.1014203 C20.3001262,39.1014203 14.9062427,37.7392189 14.4902351,37.667915 C14.0734792,37.5943828 11.0708915,39.0056057 11.0708915,39.0056057 C11.8243443,39.983806 19.6207468,52.3245785 19.6207468,52.3245785 L20.9795056,52.3245785 C20.9795056,52.3245785 28.7856349,40.101903 29.5368429,39.1222173 C29.5368429,39.1222173 26.1653852,37.3633879 25.5241648,37.3633879" id="Fill-9" fill="#E7E5E2"></path>
                                                    <path d="M14.1553339,37.7661064 C12.4306979,38.3083131 9.88601793,39.7767276 9.88601793,39.7767276 C9.75582849,44.5258639 14.6454149,49.3188224 14.6454149,49.3188224 L15.6382965,46.2809795 L19.3733868,52.6537648 L21.3636393,52.7102137 L24.8009399,46.950939 L26.2015988,50.1848676 C30.9190957,42.801201 30.1963198,39.6942825 30.1963198,39.6942825 C28.3130621,38.2377519 25.9367306,37.4690068 25.9367306,37.4690068 L20.3041665,50.9595547 L14.1553339,37.7661064 Z" id="Fill-11" fill="#9ABDCD"></path>
                                                    <path d="M35.8008259,23.2517535 C35.8008259,33.2974321 28.7863083,41.4409307 20.1331993,41.4409307 C11.4800904,41.4409307 4.46706927,33.2974321 4.46706927,23.2517535 C4.46706927,13.206075 11.4800904,5.06183358 20.1331993,5.06183358 C28.7863083,5.06183358 35.8008259,13.206075 35.8008259,23.2517535" id="Fill-13" fill="#E7E5E2"></path>
                                                    <path d="M34.7844503,22.2895966 C36.0683876,22.6268046 35.6695889,21.6924265 35.6695889,20.3094281 C35.6695889,10.2652351 28.6550713,2.12173644 20.0027106,2.12173644 C11.3503499,2.12173644 4.33658054,10.2652351 4.33658054,20.3094281 C4.33658054,21.6337494 4.45704319,22.9224187 4.6889899,24.166523 C4.6889899,24.166523 9.05258101,20.2589212 10.1083127,18.6694386 C11.5157055,16.5488906 12.8759607,12.1124516 12.8759607,12.1124516 C13.3615524,12.1124516 26.4096775,8.09863663 34.7844503,22.2895966" id="Fill-15" fill="#38383A"></path>
                                                    <path d="M12.4754411,8.68043182 C12.7679933,11.5808662 13.3501047,18.7417081 25.9216167,18.2566931 C37.1268877,17.8229277 34.1684447,32.1223291 34.1684447,32.1223291 L37.1268877,22.8988735 L35.0505905,15.2396471 L15.8858061,5.39153981" id="Fill-17" fill="#38383A"></path>
                                                </g>
                                            </g>
                                            <g id="Group-5" transform="translate(12.812500, 21.466667)">
                                                <path d="M1.32585613,3.99905753 C0.186364026,4.08456704 -0.132567766,2.41124794 0.210776089,1.31845211 C0.275349934,1.11134651 0.652555683,0.169172937 1.32034373,0.169172937 C1.9873443,0.169172937 2.28186402,0.68379897 2.32281329,0.772446442 C2.81341701,1.83778509 2.57323381,3.90491862 1.32585613,3.99905753" id="Fill-17" fill="#625D58"></path>
                                                <path d="M14.043281,3.99905753 C15.1827731,4.08456704 15.5017049,2.41124794 15.1583611,1.31845211 C15.0937872,1.11134651 14.7165815,0.169172937 14.0487934,0.169172937 C13.3817929,0.169172937 13.0872731,0.68379897 13.0463239,0.772446442 C12.5557202,1.83778509 12.7959034,3.90491862 14.043281,3.99905753" id="Fill-19" fill="#625D58"></path>
                                                <path d="M7.98586069,5.53532606 C8.667036,5.43098877 9.33167411,5.45609248 9.64273104,5.83735506 C10.4026549,6.76776127 10.1845213,7.84172932 8.90564423,8.63484962 C8.26541819,9.03101753 7.3598094,9.19340715 6.80463183,8.94864599" id="Stroke-21" stroke="#D0BEA3" stroke-width="0.506" stroke-linecap="round"></path>
                                                <path d="M12.8951266,11.7994075 C12.8951266,11.7994075 11.4556023,15.0840709 7.45044903,14.9616903 C3.4452957,14.8393097 1.94356008,11.7994075 1.94356008,11.7994075" id="Stroke-23" stroke="#583931" stroke-width="1.013" stroke-linecap="round"></path>
                                            </g>
                                        </g>
                                    </g>
                                </g>
                            </g>
                        </g>
                    </g>
                </g>
            </g>
        </g>
    </g>
</svg>