<?xml version="1.0" encoding="UTF-8" standalone="no"?>
<svg width="151px" height="144px" viewBox="0 0 151 144" version="1.1" xmlns="http://www.w3.org/2000/svg" xmlns:xlink="http://www.w3.org/1999/xlink">
    <!-- Generator: Sketch 44.1 (41455) - http://www.bohemiancoding.com/sketch -->
    <title>Tiltak illustrasjon</title>
    <desc>Created with Sketch.</desc>
    <defs>
        <ellipse id="path-1" cx="75.3816429" cy="71.9705897" rx="75.3816429" ry="71.9705897"></ellipse>
        <polygon id="path-3" points="6.77626358e-20 0.4846 6.77626358e-20 4.3006 9.2207 4.3006 9.2207 0.4846 0 0.4846"></polygon>
        <polygon id="path-5" points="0 55.3 54.6727848 55.3 54.6727848 0.4991 0 0.4991"></polygon>
    </defs>
    <g id="VOL-4-(pilot)" stroke="none" stroke-width="1" fill="none" fill-rule="evenodd">
        <g id="Desktop-Copy-51" transform="translate(-440.000000, -544.000000)">
            <g id="Group-3" transform="translate(187.000000, 509.000000)">
                <g id="Tiltak-illustrasjon" transform="translate(253.000000, 35.000000)">
                    <mask id="mask-2" fill="white">
                        <use xlink:href="#path-1"></use>
                    </mask>
                    <use id="Mask" fill="#C2EAF7" xlink:href="#path-1"></use>
                    <g id="Page-1" mask="url(#mask-2)">
                        <g transform="translate(-6.000000, 14.000000)">
                            <path d="M70.7657,15.3518 L64.2497,15.3518 C64.2337,15.3518 64.2187,15.3558 63.2037,15.3568 L64.3367,19.1678 L70.7657,19.1678 C71.6817,19.1678 72.4237,18.4248 72.4237,17.5098 L72.4237,17.0098 C72.4237,16.0938 71.6817,15.3518 70.7657,15.3518" id="Fill-1" fill="#403A33"></path>
                            <g id="Group-5" stroke-width="1" fill="none" transform="translate(0.000000, 14.866900)">
                                <mask id="mask-4" fill="white">
                                    <use xlink:href="#path-3"></use>
                                </mask>
                                <g id="Clip-4"></g>
                                <path d="M9.2207,0.4896 C8.2047,0.4896 8.1907,0.4846 8.1747,0.4846 L1.6587,0.4846 C0.7417,0.4846 -0.0003,1.2276 -0.0003,2.1426 L-0.0003,2.6426 C-0.0003,3.5586 0.7417,4.3006 1.6587,4.3006 L8.0867,4.3006 L9.2207,0.4896 Z" id="Fill-3" fill="#403A33" mask="url(#mask-4)"></path>
                            </g>
                            <path d="M53.2827,51.8669 L55.1847,51.8669 C57.0587,51.8669 58.5777,50.3479 58.5777,48.4739 L58.5777,43.1799 L49.8897,43.1799 L49.8897,48.4739 C49.8897,50.3479 51.4087,51.8669 53.2827,51.8669" id="Fill-6" fill="#403A33"></path>
                            <path d="M17.2365,51.8669 L19.1385,51.8669 C21.0125,51.8669 22.5315,50.3479 22.5315,48.4739 L22.5315,43.1799 L13.8435,43.1799 L13.8435,48.4739 C13.8435,50.3479 15.3625,51.8669 17.2365,51.8669" id="Fill-8" fill="#403A33"></path>
                            <path d="M64.462,20.1674 L64.634,20.1674 L59.48,2.8434 C58.978,1.1564 57.427,0.0004 55.668,0.0004 L16.752,0.0004 C14.992,0.0004 13.441,1.1564 12.94,2.8434 L7.785,20.1674 L7.957,20.1674 C5.101,20.1674 2.785,22.4834 2.785,25.3394 L2.785,31.1224 C2.785,37.2034 7.761,42.1794 13.842,42.1794 L58.577,42.1794 C64.658,42.1794 69.634,37.2034 69.634,31.1224 L69.634,25.3394 C69.634,22.4834 67.318,20.1674 64.462,20.1674" id="Fill-10" fill="#254D6F"></path>
                            <path d="M59.3814,35.1585 C57.1364,35.1585 55.3174,33.3385 55.3174,31.0945 C55.3174,28.8495 57.1364,27.0305 59.3814,27.0305 C61.6254,27.0305 63.4454,28.8495 63.4454,31.0945 C63.4454,33.3385 61.6254,35.1585 59.3814,35.1585" id="Fill-12" fill="#FFE5C2"></path>
                            <path d="M13.0381,35.1585 C10.7931,35.1585 8.9741,33.3385 8.9741,31.0945 C8.9741,28.8495 10.7931,27.0305 13.0381,27.0305 C15.2821,27.0305 17.1021,28.8495 17.1021,31.0945 C17.1021,33.3385 15.2821,35.1585 13.0381,35.1585" id="Fill-14" fill="#FFE5C2"></path>
                            <path d="M16.9805,6.6511 C17.2415,5.7751 18.0465,5.1741 18.9615,5.1741 L53.4575,5.1741 C54.3725,5.1741 55.1775,5.7751 55.4385,6.6511 L59.4595,20.1671 L12.9595,20.1671 L16.9805,6.6511 Z" id="Fill-16" fill="#F1EFEF"></path>
                        </g>
                    </g>
                    <g id="Page-1" mask="url(#mask-2)">
                        <g transform="translate(101.000000, 32.000000)">
                            <polygon id="Fill-1" fill="#595B5C" points="42.9758861 3.79302 48.3603165 3.79302 48.3603165 0.69972 42.9758861 0.69972"></polygon>
                            <g id="Group-16" stroke-width="1" fill="none" transform="translate(0.000000, 0.200620)">
                                <path d="M7.03846835,21.17962 L7.03846835,23.05982 L30.484481,23.05982 L31.4737848,19.79292 L8.41764557,19.79292 C7.65878481,19.79292 7.03846835,20.41662 7.03846835,21.17962 Z M7.51606329,39.56652 L39.1835316,39.56652 L39.1835316,34.95352 L7.51606329,34.95352 L7.51606329,39.56652 Z M40.827962,2.04582 L42.976443,2.04582 L42.976443,3.29952 L40.827962,3.29952 L40.827962,33.45972 L40.827962,41.05962 L6.08397468,41.05962 L6.08397468,33.45972 L6.08397468,24.09932 L6.08397468,23.05982 L6.08397468,21.05922 C6.08397468,19.94482 6.99043038,19.03272 8.09948101,19.03272 L31.7042278,19.03272 L36.8498608,2.04582 L39.8198608,2.04582 L40.827962,2.04582 Z" id="Fill-2" fill="#010101"></path>
                                <path d="M43.6922089,41.05976 C43.6922089,42.65016 42.4098038,43.93956 40.8280316,43.93956 C39.2455633,43.93956 37.9631582,42.65016 37.9631582,41.05976 C37.9631582,39.46936 39.2455633,38.17996 40.8280316,38.17996 C42.4098038,38.17996 43.6922089,39.46936 43.6922089,41.05976" id="Fill-4" fill="#000000"></path>
                                <path d="M40.8278228,53.59326 C34.1192152,53.59326 28.680481,48.12486 28.680481,41.37966 C28.680481,34.63446 34.1192152,29.16606 40.8278228,29.16606 C47.5364304,29.16606 52.9751646,34.63446 52.9751646,41.37966 C52.9751646,48.12486 47.5364304,53.59326 40.8278228,53.59326 M40.8278228,27.45946 C33.1814304,27.45946 26.9831392,33.69156 26.9831392,41.37966 C26.9831392,49.06776 33.1814304,55.29986 40.8278228,55.29986 C48.4742152,55.29986 54.6725063,49.06776 54.6725063,41.37966 C54.6725063,33.69156 48.4742152,27.45946 40.8278228,27.45946" id="Fill-6" fill="#8C8C8C"></path>
                                <path d="M40.8278228,50.52341 C35.8054177,50.52341 31.7340253,46.42981 31.7340253,41.38001 C31.7340253,36.32951 35.8054177,32.23591 40.8278228,32.23591 C45.8502278,32.23591 49.9216203,36.32951 49.9216203,41.38001 C49.9216203,46.42981 45.8502278,50.52341 40.8278228,50.52341 M40.8278228,30.98011 C35.115481,30.98011 30.4843418,35.63581 30.4843418,41.38001 C30.4843418,47.12351 35.115481,51.77991 40.8278228,51.77991 C46.5401646,51.77991 51.1713038,47.12351 51.1713038,41.38001 C51.1713038,35.63581 46.5401646,30.98011 40.8278228,30.98011" id="Fill-8" fill="#8C8C8C"></path>
                                <path d="M4.14741772,51.49991 L4.14741772,31.25941 C4.14741772,30.05891 5.11513924,29.08661 6.30912658,29.08661 L27.2348861,29.08661 C27.3678608,29.08661 27.4966582,29.10271 27.6226709,29.12581 C27.2446329,28.15211 26.3082405,27.45981 25.2061519,27.45981 L5.15551899,27.45981 C3.71994937,27.45981 2.55589873,28.62951 2.55589873,30.07291 L2.55589873,49.43351 C2.55589873,50.53041 3.22982278,51.46631 4.18292405,51.85341 C4.16412658,51.73791 4.14741772,51.62101 4.14741772,51.49991" id="Fill-10" fill="#010101"></path>
                                <path d="M0,52.00986 C0,50.19266 1.46481013,48.71986 3.2721519,48.71986 C5.07949367,48.71986 6.5443038,50.19266 6.5443038,52.00986 C6.5443038,53.82706 5.07949367,55.29986 3.2721519,55.29986 C1.46481013,55.29986 0,53.82706 0,52.00986" id="Fill-12" fill="#8C8C8C"></path>
                                <mask id="mask-6" fill="white">
                                    <use xlink:href="#path-5"></use>
                                </mask>
                                <g id="Clip-15"></g>
                                <polygon id="Fill-14" fill="#595B5C" mask="url(#mask-6)" points="12.3972785 20.713 28.6807595 20.713 28.6807595 17.6197 12.3972785 17.6197"></polygon>
                            </g>
                        </g>
                    </g>
                    <g id="Page-1" mask="url(#mask-2)">
                        <g transform="translate(29.000000, 72.000000)">
                            <path d="M48.901,15.4257 C46.879,14.0077 44.091,14.4967 42.673,16.5187 C41.255,18.5407 41.745,21.3287 43.766,22.7467 C45.788,24.1647 48.576,23.6747 49.994,21.6537 C51.412,19.6317 50.923,16.8437 48.901,15.4257" id="Fill-1" stroke="none" fill="#FDBD68" fill-rule="evenodd"></path>
                            <polyline id="Stroke-5" stroke="#635E59" stroke-width="3" fill="none" stroke-linecap="round" stroke-linejoin="round" points="20.3376 79.5139 3.2466 38.8509 27.6696 6.3669"></polyline>
                            <path d="M38.5984,5.0884 L33.1584,1.2734 C29.9854,-0.9526 25.6084,-0.1846 23.3824,2.9884 C21.1574,6.1614 21.9254,10.5384 25.0984,12.7644 L30.5384,16.5794 C29.6154,22.4284 31.9674,28.5624 37.1414,32.1914 L55.5254,5.9804 C50.3514,2.3514 43.7834,2.2284 38.5984,5.0884" id="Fill-7" stroke="none" fill="#EFEFEF" fill-rule="evenodd"></path>
                            <path d="M8.4933,38.8505 C8.4933,36.5055 6.5923,34.6035 4.2463,34.6035 C1.9013,34.6035 0.0003,36.5055 0.0003,38.8505 C0.0003,41.1955 1.9013,43.0975 4.2463,43.0975 C6.5923,43.0975 8.4933,41.1955 8.4933,38.8505" id="Fill-9" stroke="none" fill="#635E59" fill-rule="evenodd"></path>
                        </g>
                    </g>
                </g>
            </g>
        </g>
    </g>
</svg>