<?xml version="1.0" encoding="UTF-8"?>
<svg width="24px" height="20px" viewBox="0 0 24 20" version="1.1" xmlns="http://www.w3.org/2000/svg" xmlns:xlink="http://www.w3.org/1999/xlink">
    <!-- Generator: sketchtool 61 (101010) - https://sketch.com -->
    <title>E64BDD87-3CE7-4BBA-8E71-E46A5089E70E@3.00x</title>
    <desc>Created with sketchtool.</desc>
    <defs>
        <path d="M14,2 C15.103,2 16,2.897 16,4 L16,4 L16,5 L21.5,5 C22.879,5 24,6.121 24,7.5 L24,7.5 L24,19.5 C24,20.879 22.879,22 21.5,22 L21.5,22 L2.5,22 C1.121,22 0,20.879 0,19.5 L0,19.5 L0,7.5 C0,6.121 1.121,5 2.5,5 L2.5,5 L8,5 L8,4 C8,2.897 8.897,2 10,2 L10,2 Z M21.5,6 L2.5,6 C1.673,6 1,6.673 1,7.5 L1,7.5 L1,19.5 C1,20.327 1.673,21 2.5,21 L2.5,21 L21.5,21 C22.327,21 23,20.327 23,19.5 L23,19.5 L23,7.5 C23,6.673 22.327,6 21.5,6 L21.5,6 Z M13.5,9 C13.776,9 14,9.224 14,9.5 L14,9.5 L14,12 L16.5,12 C16.776,12 17,12.224 17,12.5 L17,12.5 L17,15.5 C17,15.776 16.776,16 16.5,16 L16.5,16 L14,16 L14,18.5 C14,18.776 13.776,19 13.5,19 L13.5,19 L10.5,19 C10.224,19 10,18.776 10,18.5 L10,18.5 L10,16 L7.5,16 C7.224,16 7,15.776 7,15.5 L7,15.5 L7,12.5 C7,12.224 7.224,12 7.5,12 L7.5,12 L10,12 L10,9.5 C10,9.224 10.224,9 10.5,9 L10.5,9 Z M13,10 L11,10 L11,12.5 C11,12.776 10.776,13 10.5,13 L10.5,13 L8,13 L8,15 L10.5,15 C10.776,15 11,15.224 11,15.5 L11,15.5 L11,18 L13,18 L13,15.5 C13,15.224 13.224,15 13.5,15 L13.5,15 L16,15 L16,13 L13.5,13 C13.224,13 13,12.776 13,12.5 L13,12.5 L13,10 Z M14,3 L10,3 C9.448,3 9,3.448 9,4 L9,4 L9,5 L15,5 L15,4 C15,3.448 14.552,3 14,3 L14,3 Z" id="path-1"></path>
    </defs>
    <g id="Kvittering---godkjent-plan" stroke="none" stroke-width="1" fill="none" fill-rule="evenodd">
        <g id="Oppfølgingsplan-godkjent-delt-med-fastlege" transform="translate(-207.000000, -663.000000)">
            <g id="LINE/health/-medical-box" transform="translate(207.000000, 661.000000)">
                <mask id="mask-2" fill="white">
                    <use xlink:href="#path-1"></use>
                </mask>
                <use id="Mask" fill="#3E3832" fill-rule="evenodd" xlink:href="#path-1"></use>
                <g id="↪︎-🌈" stroke-width="1" fill-rule="evenodd" mask="url(#mask-2)" fill="#3E3832">
                    <g transform="translate(12.000000, 12.000000) scale(1, -1) translate(-12.000000, -12.000000) " id="iconfarge-/-nav-grå">
                        <rect x="0" y="0" width="24" height="24"></rect>
                    </g>
                </g>
            </g>
        </g>
    </g>
</svg>