<svg xmlns="http://www.w3.org/2000/svg" fill="none" aria-hidden="true" viewBox="0 0 698 632">
    <path fill="#A1512A"
          d="M344.1 111.58s1.67.56 6.23 15.74c4.43 14.75-.51 24.77-4.03 36.62-3.52 11.86-11.08 218.83-11.08 218.83-94.41 9.15-137.55-11.21-137.55-11.21v-82.25l146.35-177.73"/>
    <path fill="#F9E3D2" d="m310.75 97.07 12.16-21 21.2 27.52-8.58 8.2-20.13 8.06-4.65-22.78Z"/>
    <path fill="#DDB9A6"
          d="m337.24 112.03 11.72-12.76-7.33-3.73s-3.86 10.1-22.15 21.6c-18.3 11.5 17.71-5.11 17.71-5.11"/>
    <path fill="#F9E3D2"
          d="M334.52 107.46a25.96 25.96 0 0 0 8.37 2.69c12.31 2.77 28.48-1.49 41.1-21.85 15.82-25.5 16.77-57.61-5.31-71.28a37.93 37.93 0 0 0-40.9-.38c-7.87 5-13.3 13.87-19.08 23.33-5.78 9.46-2.65 8.73-4.43 12.41-4.85 10.28-6.9 20.12-4.25 29.87 3.1 11.25 11.96 17.44 24.5 25.21Z"/>
    <path fill="#F9E3D2"
          d="M312.48 66.2c1.13-1.81 9.85-23.97 9.85-23.97a32.86 32.86 0 0 0-6.64-1.57 7.9 7.9 0 0 0-7 3.19 16.2 16.2 0 0 0-2.68 8.38c-.77 9.48 4.68 12.87 6.47 13.98Z"/>
    <path fill="#FA3"
          d="M332.5 46.02c35.26 11.86 51.3 3.01 53.29 3 1.06 2.63 5.93 18.72 1.02 30.7a58.97 58.97 0 0 1-11.28 18.08c-7.95 8.71-21.99 14.8-31.71 11.9l-.51.82a62.53 62.53 0 0 1 10.92 21.7c0 .26.66 2.7.7 2.96 9 2.49 18.51 2.49 27.51 0 0 0-4.12-22.84 11.74-48.48 18.6-30 16.37-62.55-10.32-79.08l-.93-.57-.93-.58a39.86 39.86 0 0 0-14.8-5.5c-23.71-4.87-45.6 7.34-60.55 31.45-15.9 25.63-38.18 32.1-38.18 32.1a68.7 68.7 0 0 0 14.46 25.93 70.42 70.42 0 0 1 26.91-.87l2.22-3.6a28.16 28.16 0 0 1-2.22-11.42 32.5 32.5 0 0 1 1.53-11.79 11.08 11.08 0 0 1-4.1-12.36c1.58-6.65 4.77-9.6 9.53-9.15l15.7 4.76Z"/>
    <path fill="#262626"
          d="M369.18 71.79c1.28-2.1 3.05-3.17 4.43-2.7a2.46 2.46 0 0 1 1.5 2.21c0 3.17-2.21 8.45-4.98 7.8-3.1-.73-3.12-3.85-.95-7.31Zm-23.08-6.67c-2.8-1.86-.64-6.4 1.86-8.13a3.74 3.74 0 0 1 4.43-.47 4.43 4.43 0 0 1 1.95 3.93c-.51 3.16-3.61 7.66-7.44 5.14l-.8-.47ZM361.69 76.38a4.6 4.6 0 0 0 2.8 3.17h.24c1.5.66 2.2 1.4 2.39 2.06.24 2.59-1.33 4.18-4.59 4.3a5.31 5.31 0 0 1-4.18-1.67.97.97 0 0 0-1.4-.24 1.13 1.13 0 0 0-.33 1.48 7 7 0 0 0 5.85 2.53c4.42-.16 7.06-2.81 6.64-6.65-.16-1.61-1.46-2.77-3.54-3.68l-.3-.1a2.66 2.66 0 0 1-1.63-1.87.94.94 0 0 0-.85-.73.95.95 0 0 0-.4.05 1.13 1.13 0 0 0-.7 1.35Zm-23.45 14.55a1.03 1.03 0 0 1-.23-1.12.98.98 0 0 1 .23-.34c.7-.7 2.08-.37 5.11.98l1.18.62c.71.44 1.4.93 2.06 1.46l.8.66a1.02 1.02 0 0 1 0 1.47 1.04 1.04 0 0 1-1.5 0c-.12-.11-.37-.34-.7-.58a13.78 13.78 0 0 0-2.75-1.8c-.93-.44-1.9-.8-2.9-1.08h-.24a1.08 1.08 0 0 1-1.06-.27Z"/>
    <path fill="#DDC7A2"
          d="M.02 569.4c.36-9.97 112.8-17.03 178.78-14.6 65.97 2.44 185.17 20.54 184.68 33.84-.48 13.3-89.5 21.67-186.9 18.08-97.4-3.6-177.2-20.3-176.56-37.32Z"/>
    <path fill="#F9E3D2"
          d="M69.3 525.73s3.08 10.1 18.12 10.93l18.95-23.91-25.13-11.35-11.94 24.33Zm180.83 30s7.95 6.96 21.18-.26l3.52-30.31-27.33 3.65 2.63 26.92Z"/>
    <path fill="#744631"
          d="M201.14 222.75a375.2 375.2 0 0 0 46.98 24.37l-62.63 161.13-70.46 118.35s-29.25 9.48-44.91-18.95c0 0 68.08-107.26 69.8-115.9l36.5-182.16 24.72 13.16Z"/>
    <path fill="#663924"
          d="m248.12 247.06 19.38 8.66 23.47 136.87s-4.12 142.63-7 150.05c0 0-22.65 6.18-41.21 0l2.48-142.23-24.08-84"/>
    <path fill="#331E15"
          d="M69.3 525.73s-9.06 4.54-21.13 29.16c0 0-1.53 2.22 1.55 3.72 3.08 1.51 17.32 8.87 17.32 8.87a2.37 2.37 0 0 0 3.08 0c1.44-1.33 3.41-4.12 5.36-2.97 1.95 1.15 0 8.13 0 8.13l25.18 10.7 28.8.51-.63-8.44s.62-3.1-4.63-3.61c-7.08-1.3-14.1-2.94-21.02-4.94l-15.8-30.2s-14.16-3.42-18.08-10.93Zm180.83 30s-6.49 5.37-7.08 32.77c0 0-.47 2.7 2.94 2.73 3.41.02 19.47.86 19.47.86a2.39 2.39 0 0 0 2.81-1.28c.75-1.82 1.35-5.16 3.61-4.96 2.26.2 3.41 7.4 3.41 7.4l27.27 1.3 24.9.47v-8.98a4.7 4.7 0 0 0-3.64-3.54c-5.18-1.04-19.93-3.5-26.31-6.65-6.38-3.14-26.58-20.43-26.58-20.43s-14.09 5.5-20.8.31Z"/>
    <path fill="#FFB180"
          d="M400.47 185.81s6.18-17.1 16.59-20.1c5.62-1.66 11.32-3 17.1-4 0 0 2.88-.94 3.07 1.32.12 1.62.12 3.24 0 4.86l6.3 9.48s1.86-.42 2.56.82a4.76 4.76 0 0 1 0 5.98 33.4 33.4 0 0 0-3.6 7.63c-.71 1.95-1.22 2.79-5.45 4.54a42.06 42.06 0 0 1-8.35 2.68c-.96.14-1.84.6-2.48 1.33-.51.62.62 1.04-4.21 1.66-4.83.62-9.68.51-12.47 2.22-2.8 1.7-9.06-18.42-9.06-18.42Z"/>
    <path fill="#FFEBC1" d="m392.28 186.59 6.64-3.55s13.44 7.43 15.15 23.03l-6.22 5.89-15.57-25.37Z"/>
    <path fill="#A1512A"
          d="M350.5 205.02a153.71 153.71 0 0 0 37.41-24.75 78.5 78.5 0 0 1 21.84 37.12s-28.37 17.55-56.83 31.02c-28.46 13.47-2.41-43.39-2.41-43.39Z"/>
    <path fill="#FFEAC7"
          d="m337.37 112-1.1 51.59c-7.03 16.68-60.38 81.98-60.38 81.98-19.05-4.58-60.28-29.18-60.28-29.18s33.04-34.76 39.86-43.92c6.82-9.15 55.37-76.13 55.37-76.13l9.88 20.5 16.65-4.83Z"/>
    <path fill="#E9CF8D"
          d="M313.7 122.97a78.97 78.97 0 0 1-13.5 1.13l.6-1.52c2.1-5.6 4.7-11 7.78-16.14a71.5 71.5 0 0 1-2.52 8.62c-1 2.82-2.09 5.61-3.28 8.33l-1-1.48c4 .03 7.98.4 11.92 1.06Z"/>
    <path fill="#2E1912" d="m215.6 216.4-12.33 7.63s42.9 24.82 64.23 31.73l8.4-10.1-60.3-29.27Z"/>
    <path fill="#CD6B3D"
          d="M310.93 96.3S238.7 210.39 203.27 224c0 0-16.9 1.21-14.84 63.05 2.06 61.84 2.48 89.45 2.48 89.45s3.7 11.55-10.72 3.3a291.96 291.96 0 0 0-35.43-16.06s-2.37.6-1.97-5.59c.4-6.18 13.5-106.13 16.8-124.28a69.37 69.37 0 0 1 12.36-29.27s30.7-48.63 55.62-77.9c24.91-29.27 42.45-52.98 42.45-52.98s20.18 4.36 40.9 22.58Z"/>
    <path fill="#F9E3D2"
          d="m172.88 212.45.73 7.7a136.6 136.6 0 0 1-10.72 9.91c-3.3 2.37-9.36 13.6-9.36 13.6s-.82 1.56 0 2.22a33.2 33.2 0 0 0 3.7 2.37l-1.13 6.92s-.82 1.86.42 2.57c1.24.7 4.63 2.57 4.63 2.57s-.47 5.78 2.21 6.8a11 11 0 0 0 4.67.84s5.14-15.04 7.42-18.34c2.28-3.3 2.57.5 2.57.5l-3.6 16.18s-.94 2.21 1.23 2.68c2.17.47 4.43.82 4.43.82s1.55.42 1.95-2.06a291.2 291.2 0 0 1 2.68-11.74 14.05 14.05 0 0 1 3.1-5.45c2.37-2.6 1.75-2.8 4.12-5.59s5.56-5.87 5.56-5.87 1.02-1.44 2.48.73 4.83 9.68 8.86 11.32c4.03 1.64 4.32-.3 4.43-1.33a7.71 7.71 0 0 0-1.44-4 20.52 20.52 0 0 1-2.88-6.65 80.56 80.56 0 0 0-4.12-12.68c-1.44-2.99-2.68-3.3-5.16-4.74-2.48-1.44-7.2-4.85-7.2-4.85a1.61 1.61 0 0 1-1.35-1.55c-.2-1.44-.2-6.65-.2-6.65l-18.03 3.77Z"/>
    <path fill="#FFEBC4" d="M168.8 212.22s11.86 5.99 28.95-1.32v-14.65h-28.94v15.97Z"/>
    <path fill="#CD6B3D"
          d="M269.33 73.72s14.03 47.2-41.8 53.6l-20.2 5.14s-1.45-1.44-1.85 4.43c-.4 5.87-1.66 63.48-1.66 63.48s-20.6 11.94-40.8 2.22c0 0 5.17-25.77 4.44-44.52-.73-18.74 3.08-44.31 3.08-44.31s-1.84-10.93 13.6-15.87c15.43-4.94 74.5-23.13 85.2-24.17Z"/>
    <path fill="#E47E52"
          d="M156.85 250.7c.17-1.58.69-3.1 1.53-4.44 2.37-3.9 4.43-8.86 8.86-10.84-1.71 2.57-3.92 4.68-5.5 7.36a73.15 73.15 0 0 1-4.8 7.91h-.1Zm4.3 9.65a11 11 0 0 1 1.46-4.6c2.21-4.08 4.31-9.27 8.86-11.37a93.4 93.4 0 0 0-5.52 7.68c-1.75 2.69-2.66 5.83-4.72 8.3h-.08Z"/>
    <path fill="#E9CF8D"
          d="M305.5 150.5a348.62 348.62 0 0 1-20.15 44.55c-8.02 14.03-16.13 29.07-29.3 38.93 3-2.73 5.75-5.74 8.21-8.97 1.89-2.44 5.3-7.36 6.91-9.97 12.96-20.67 23.52-42.7 34.33-64.55Zm14.07-26.82a65.78 65.78 0 0 1 5.64 10.8l-1.6-.51a94.87 94.87 0 0 1 5.66-3.4 48.21 48.21 0 0 1 6.15-2.8 65.05 65.05 0 0 1-11.65 8.72 69.81 69.81 0 0 1-4.1-12.83l-.1.02Z"/>
    <path fill="#D0BBA0" d="m247.25 233.2-8.72 10.05 14.62 7.02 9.08-10.04-14.98-7.02Z"/>
    <path fill="#CD6B3D"
          d="m337.37 112 6.65-.42s14.35 182.9 11.07 246.8c0 0 .42 17.72-1.64 26.98-2.06 9.27 1.64 8.87-10.3 9.09-11.94.22-17.1-1.46-17.1-1.46s3.9-89.8 3.9-123.67c.07 0 8.24-118.83 7.42-157.31Z"/>
    <path fill="#EC854F"
          d="M427.89 199.55a15.13 15.13 0 0 1-3-5.32c2.58-.2 5.06 3.28 3 5.25v.07Zm7.73-4.67c-1.15-1.89-2.57-2.97-3-5.26 2.58-.2 5.04 3.28 3 5.26Zm7.73-7.29c-1.75-1.4-3.44-1.93-4.63-3.93 2.35-1.06 5.87 1.36 4.63 3.93Z"/>
    <path fill="#211210"
          d="M454.47 169.97a48.59 48.59 0 0 0 25.33-10.66c10.83-9.5 11.99-14.6 12.05-18.32.07-3.72-26.58 3.17-26.58 3.17l-13.06 20.71 2.26 5.1Z"/>
    <path fill="#311813" d="m441.73 168.66 7.02-4.72a6.18 6.18 0 0 1 3.48 3.6l-8.1 5.84-2.4-4.72Z"/>
    <path fill="#744631"
          d="M403.86 199.04s-5.47-5.32 0-9.41c5.47-4.1 32.29-21.74 32.29-21.74s5.43-2.08 7.73 1.77c2.3 3.86 2.81 5.8-2.83 9.9-5.65 4.1-28.11 21.65-28.11 21.65a5.87 5.87 0 0 1-9.08-2.17Z"/>
    <path fill="#311813"
          d="M447.56 162.04a10.05 10.05 0 0 0 6.9 7.93s-1.96-12.52 15.16-23.33c12.73-8.07 22.14-5.65 22.14-5.65l-4.8-7.27a34.76 34.76 0 0 0-27.56 9.97c-10.27 9.13-12.15 17.15-11.84 18.35Z"/>
    <path fill="#BCD6D6"
          d="M489.95 142c-2.86-.3-12.36-1.61-23.63 7.98-11.28 9.6-11.68 18.15-9.44 17.73a46.5 46.5 0 0 0 21.64-10.6c8.35-7.99 11.94-11.85 11.43-15.1Z"/>
    <path fill="#7BCFE0"
          d="M489.08 142.67c-2.72-.3-11.73-1.55-22.43 7.56-10.7 9.1-11.08 17.22-8.86 16.7a44.3 44.3 0 0 0 20.53-10.03c7.82-7.5 11.14-11.15 10.76-14.23Z"/>
    <path fill="#000"
          d="M434.71 586.73c5.36-1.13 19.93-.18 31 0-3.14-8.17-5.29-12.92-3.65-16.42 1.48.16 2.96.16 4.43 0 19.94 1.22 42.35 11.75 60.93 17.55a56.66 56.66 0 0 1 5.12 8.25c-19.94-1.2-35.84-3.77-55.84-3.64 1.29 2.44 1.9 3.63 2.93 5.78-3.28 0-4.15 0-9.9-.28-.65-2.22-1.07-3.28-1.98-5.68-12.77-.42-29.05-1.46-34.88 0a32.73 32.73 0 0 0 1.84-5.56Zm39.22 0c10.75.2 18.19 0 28.42 1.13 4.03.44 9.41.78 14.64 1.07l-.13-.23c-6.65-1.7-11.7-3.05-16.02-4.58a317.65 317.65 0 0 0-32.53-10.3h-.22a61.23 61.23 0 0 0 5.84 13v-.09Zm126.05 0c5.38-1.13 19.93-.18 31 0-3.16-8.17-5.31-12.92-3.68-16.42 1.48.16 2.96.16 4.44 0 19.93 1.22 42.34 11.75 60.94 17.55a60.8 60.8 0 0 1 5.12 8.25c-19.93-1.2-35.86-3.77-55.83-3.64 1.26 2.44 1.88 3.63 2.92 5.78-3.28 0-4.14 0-9.92-.28-.62-2.22-1.07-3.28-1.95-5.68-12.78-.42-29.06-1.46-34.9 0a53.91 53.91 0 0 0 1.86-5.56Zm39.22 0c10.74.2 18.2 0 28.44 1.13 4 .44 9.39.78 14.63 1.07l-.15-.23c-6.64-1.7-11.67-3.05-16.01-4.58a317.44 317.44 0 0 0-32.54-10.4h-.22a61.28 61.28 0 0 0 5.85 13.1v-.09ZM587.9 632c-22.98 0-49.3-6.65-53.61-18.83-3.84-10.82 7.26-17.73 29.43-17.9 22.59 0 43.12 8.86 50.03 18.78 7.13 10.22-4.36 17.95-25.85 17.95Zm-18.89-29.27c-17.72.13-28.79 4.19-26.15 10.88 2.9 7.51 22.8 10.75 39.86 11.08 16.44.3 27.07-4.15 23.06-11.08-3.46-5.72-18.38-11.01-36.81-10.88h.04Z"/>
    <path fill="#C30000"
          d="M330 183.9h-38.14a3.08 3.08 0 0 1-3.08-3.07V160.4a3.08 3.08 0 0 1 3.08-3.08H330a3.07 3.07 0 0 1 3.08 3.08v20.54a3.08 3.08 0 0 1-3.08 3.08"/>
    <path fill="#262626"
          d="M337.24 116.8v-4.77l-26.31 38.64 1.06-55.7-1.22 2.1-2.06 55.95v6.51h4.43v-6.51l24.1-36.23Z"/>
    <path fill="#fff"
          d="m297.64 174.47 1.82-4.43h1.72l-1.79 4.43h-1.75Zm22.28 0 1.8-4.43h.95l-1.8 4.43h-.95Zm3.57 0 1.79-4.43h.51l-1.8 4.43h-.5Z"/>
    <path fill="#fff"
          d="M318.33 170h-1.71l-.88 2.67-.87-2.68a.18.18 0 0 0-.15 0h-3.02a.13.13 0 0 0-.08.03.13.13 0 0 0-.05.08v.91c0-.7-.75-1.02-1.22-1.02a1.9 1.9 0 0 0-1.88 1.66c.06-.4-.03-.8-.24-1.15a.84.84 0 0 0-.34-.29 1.79 1.79 0 0 0-1.01-.22h-.6a.18.18 0 0 0-.16 0l-.55 1.38V170a.1.1 0 0 0 0-.1h-1.4a.18.18 0 0 0-.15 0l-.58 1.41v.16h.56v2.81l.1.11h1.4v-2.81h1.04c.07.03.13.07.18.13.06.26.06.54 0 .8v1.77c0 .03.02.06.05.08.02.02.05.03.08.03h1.33a.24.24 0 0 0 .2-.13l.29-.73a2.22 2.22 0 0 0 1.84.86h.18a.2.2 0 0 0 .12-.04.26.26 0 0 0 .1-.1l.5-1.28v1.31l.05.08.09.03h1.35a.22.22 0 0 0 .32 0 .22.22 0 0 0 .06-.1l.55-1.38h-.55v-2.22l1.5 3.8a.27.27 0 0 0 .22.12h1.6a.27.27 0 0 0 .22-.13l1.68-4.19c0-.15-.1-.15-.1-.15l-.07-.16Zm-6.65 2.85h-.9a.65.65 0 0 1-.55-.14.66.66 0 0 1-.18-.8.67.67 0 0 1 .72-.37h.25a.65.65 0 0 1 .47.2.64.64 0 0 1 .2.47v.64Zm-.8 6.65a8.86 8.86 0 1 1 3.31-.66 8.86 8.86 0 0 1-3.42.64l.11.02Z"/>
</svg>

