<?xml version="1.0" encoding="UTF-8" standalone="no"?>
<svg width="80px" height="81px" viewBox="0 0 80 81" version="1.1" xmlns="http://www.w3.org/2000/svg" xmlns:xlink="http://www.w3.org/1999/xlink">
    <!-- Generator: Sketch 48.2 (47327) - http://www.bohemiancoding.com/sketch -->
    <title>Feilmelding_leder</title>
    <desc>Created with Sketch.</desc>
    <defs>
        <ellipse id="path-1" cx="39.9944682" cy="40.2506494" rx="39.9944682" ry="40.1493506"></ellipse>
    </defs>
    <g id="Oppdatert-oversiktsside-Copy-13" stroke="none" stroke-width="1" fill="none" fill-rule="evenodd" transform="translate(-259.000000, -539.000000)">
        <g id="Feilmelding_leder" transform="translate(259.000000, 539.000000)">
            <g id="Group-11" transform="translate(0.000000, 0.101299)"></g>
            <mask id="mask-2" fill="white">
                <use xlink:href="#path-1"></use>
            </mask>
            <use id="Mask" fill="#E2AFA7" xlink:href="#path-1"></use>
            <g id="Group" mask="url(#mask-2)">
                <g transform="translate(18.421053, 14.294118)">
                    <g id="Dame-med-håndskade">
                        <path d="M2.08336842,21.6561797 L2.08336842,51.404703 C2.08336842,51.404703 2.00911005,43.6054819 20.9832727,43.6054819 C39.958201,43.6054819 20.4374354,21.6561797 20.4374354,21.6561797 L2.08336842,21.6561797 Z" id="Fill-63" fill="#303339"></path>
                        <path d="M40.173244,21.6561797 L40.173244,51.404703 C40.173244,51.404703 40.1158278,43.6054819 21.1424306,43.6054819 C2.16750239,43.6054819 21.5581244,21.6561797 21.5581244,21.6561797 L40.173244,21.6561797 Z" id="Fill-65" fill="#303339"></path>
                        <path d="M20.979445,42.7128499 C10.5373397,42.7128499 2.07418182,33.1808093 2.07418182,21.4221724 C2.07418182,9.66506897 10.5373397,0.132261663 20.979445,0.132261663 C31.4192536,0.132261663 39.8839426,9.66506897 39.8839426,21.4221724 C39.8839426,33.1808093 31.4192536,42.7128499 20.979445,42.7128499 Z" id="Fill-67" fill="#303339"></path>
                        <path d="M27.2276364,36.0676406 L21.0312727,36.0676406 L14.8349091,36.0676406 C11.4940478,36.0676406 0.389741627,43.156099 0.389741627,49.6089347 L0.389741627,66.5867318 L41.8657225,66.5867318 L41.8657225,49.6089347 C41.8657225,43.156099 30.5677321,36.0676406 27.2276364,36.0676406" id="Fill-69" fill="#8E9738"></path>
                        <path d="M26.8613206,35.5734037 C26.1447656,35.5734037 21.0316555,37.7647302 21.0316555,37.7647302 C21.0316555,37.7647302 15.0106029,36.0480122 14.5459139,35.9575375 C14.0804593,35.8662961 10.7304115,37.6443529 10.7304115,37.6443529 C11.5694545,38.8795619 13.9572057,44.6285355 21.0316555,44.6285355 C28.1061053,44.6285355 30.4992153,38.8795619 31.3397895,37.6443529 C31.3397895,37.6443529 27.5778756,35.5734037 26.8613206,35.5734037" id="Fill-71" fill="#E7E5E2"></path>
                        <path d="M5.44535885,17.7004442 C5.44535885,17.7004442 5.36421053,17.8660588 5.25779904,17.7916856 C5.1108134,17.7341805 5.10315789,17.7004442 4.93703349,17.7004442 C4.21205742,17.7004442 3.77645933,18.2885294 3.77645933,19.01386 L3.77645933,24.3188945 C3.77645933,25.0457586 4.21205742,25.6330771 4.93703349,25.6330771 C5.22717703,25.6330771 5.41703349,25.5364686 5.63368421,25.3754544 C7.39827751,33.4583671 13.6191388,39.4335274 21.0687081,39.4335274 C28.5190431,39.4335274 34.7582775,33.4583671 36.5228708,25.3754544 C36.7402871,25.5364686 36.9416268,25.6330771 37.2317703,25.6330771 C37.957512,25.6330771 38.4796172,25.0457586 38.4796172,24.3188945 L38.4796172,19.01386 C38.4796172,18.2885294 37.9467943,17.7004442 37.2233493,17.7004442 C37.0549282,17.7004442 36.9125359,17.871426 36.7770335,17.7916856 C20.9791388,8.50960041 5.44535885,17.7004442 5.44535885,17.7004442" id="Fill-73" fill="#E7E5E2"></path>
                        <polyline id="Fill-75" fill="#FFFFFF" points="31.2183732 37.4344978 13.8909091 66.5865018 33.402488 66.5865018 33.402488 38.6114349"></polyline>
                        <polyline id="Fill-77" fill="#FFFFFF" points="10.6315024 37.3056864 19.4789665 65.7392604 16.4726507 65.7392604"></polyline>
                    </g>
                    <g id="Usikker-dame-Copy" transform="translate(14.736842, 21.705882)">
                        <path d="M9.2879257,10.5882353 C9.2879257,10.5882353 8.78097869,9.75473898 7.48614892,9.83774514 L6.19195046,9.92132375" id="Stroke-137" stroke="#D19E9C" stroke-width="1.013" stroke-linecap="round"></path>
                        <path d="M1.16646624,3.02272758 C0.0996612168,3.09014093 -0.198926229,1.76941919 0.122516058,0.90754315 C0.1829708,0.743721463 0.536114965,0 1.16130547,0 C1.78575872,0 2.06149132,0.406654718 2.09982848,0.476242691 C2.55913707,1.31709737 2.33353766,2.94879036 1.16646624,3.02272758" id="Fill-139" fill="#635E59"></path>
                        <path d="M11.9915046,3.02272758 C13.05824,3.09014093 13.356808,1.76941919 13.0353867,0.90754315 C12.9749359,0.743721463 12.6218148,0 11.996665,0 C11.3722525,0 11.0965379,0.406654718 11.0582033,0.476242691 C10.5989247,1.31709737 10.8237721,2.94879036 11.9915046,3.02272758" id="Fill-141" fill="#635E59"></path>
                        <path d="M7.30820061,4.58256252 C7.95190486,4.49444069 8.5799816,4.51564294 8.87392747,4.83765204 C9.5920484,5.62346026 9.38591421,6.53051883 8.17738738,7.20037727 C7.57237981,7.53497521 6.71658803,7.67212723 6.19195046,7.46540534" id="Stroke-143" stroke="#D1BFA3" stroke-width="0.506" stroke-linecap="round"></path>
                    </g>
                </g>
            </g>
        </g>
    </g>
</svg>