<svg width="64" height="64" viewBox="0 0 64 64" fill="none" xmlns="http://www.w3.org/2000/svg">
    <rect width="64" height="64" rx="32" fill="#F1F1F1"/>
    <path fill-rule="evenodd" clip-rule="evenodd" d="M22.6668 20.3333H41.3335V43.6667H22.6668V20.3333ZM20.3335 20.3333C20.3335 19.0447 21.3782 18 22.6668 18H41.3335C42.6222 18 43.6668 19.0447 43.6668 20.3333V43.6667C43.6668 44.9553 42.6222 46 41.3335 46H22.6668C21.3782 46 20.3335 44.9553 20.3335 43.6667V20.3333ZM23.7831 25.4371L25.6338 24.016L26.3896 25.0003L29.168 22.2083L30.8219 23.8542L26.1628 28.5362L23.7831 25.4371ZM37.8335 27.3333H30.8335V25H37.8335V27.3333ZM30.8335 33.1667H37.8335V30.8333H30.8335V33.1667ZM37.8335 39L30.8335 39L30.8335 36.6667L37.8335 36.6667L37.8335 39ZM28.5002 32C28.5002 32.6443 27.9778 33.1667 27.3335 33.1667C26.6892 33.1667 26.1668 32.6443 26.1668 32C26.1668 31.3557 26.6892 30.8333 27.3335 30.8333C27.9778 30.8333 28.5002 31.3557 28.5002 32ZM27.3335 39C27.9778 39 28.5002 38.4777 28.5002 37.8333C28.5002 37.189 27.9778 36.6667 27.3335 36.6667C26.6892 36.6667 26.1668 37.189 26.1668 37.8333C26.1668 38.4777 26.6892 39 27.3335 39Z" fill="#523300"/>
</svg>
