<?xml version="1.0" encoding="UTF-8" standalone="no"?>
<svg width="152px" height="152px" viewBox="0 0 152 152" version="1.1" xmlns="http://www.w3.org/2000/svg" xmlns:xlink="http://www.w3.org/1999/xlink">
    <!-- Generator: Sketch 43.2 (39069) - http://www.bohemiancoding.com/sketch -->
    <title>Feilmelding ikon</title>
    <desc>Created with Sketch.</desc>
    <defs>
        <ellipse id="path-1" cx="75.9894895" cy="75.8376623" rx="75.9894895" ry="75.8376623"></ellipse>
        <polygon id="path-3" points="77.8077976 0.246312652 77.8077976 57.1491072 0.000430591022 57.1491072 0.000430591022 0.246312652 77.8077976 0.246312652"></polygon>
        <polygon id="path-5" points="-0.000380314948 0.655 4.394 0.655 4.394 3.45091112 -0.000380314948 3.45091112 -0.000380314948 0.655"></polygon>
        <polygon id="path-7" points="0.000210814081 0.655 4.39468031 0.655 4.39468031 3.45091112 0.000210814081 3.45091112 0.000210814081 0.655"></polygon>
    </defs>
    <g id="Feilmeldinger" stroke="none" stroke-width="1" fill="none" fill-rule="evenodd">
        <g id="Feilmelding-under-18" transform="translate(-441.000000, -387.000000)">
            <g id="Feilmelding-ikon" transform="translate(441.000000, 387.000000)">
                <g id="Feilmelding-oppfølging">
                    <g id="Group-11" transform="translate(0.000000, 0.191342)">
                        <mask id="mask-2" fill="white">
                            <use xlink:href="#path-1"></use>
                        </mask>
                        <use id="Mask" fill="#E2AFA7" xlink:href="#path-1"></use>
                        <g mask="url(#mask-2)" id="Page-1">
                            <g transform="translate(37.165165, 14.584416)">
                                <g transform="translate(0.000000, -0.000000)">
                                    <g id="Group-3" transform="translate(0.000000, 80.979578)">
                                        <mask id="mask-4" fill="white">
                                            <use xlink:href="#path-3"></use>
                                        </mask>
                                        <g id="Clip-2"></g>
                                        <path d="M50.3465682,0.246312652 L38.7220459,0.246312652 L27.0975236,0.246312652 C20.8309889,0.246312652 0.000430591022,13.4620437 0.000430591022,25.4933595 L0.000430591022,57.1496787 L77.8082282,57.1496787 L77.8082282,25.4933595 C77.8082282,13.4620437 56.6131028,0.246312652 50.3465682,0.246312652" id="Fill-1" fill="#8FA14D" mask="url(#mask-4)"></path>
                                    </g>
                                    <path d="M49.6593449,80.3037896 C48.3159009,80.3037896 38.7208976,84.3899508 38.7208976,84.3899508 C38.7208976,84.3899508 27.4264951,81.1896007 26.555266,81.0195822 C25.6826015,80.8495636 19.3974079,84.1642118 19.3974079,84.1642118 C20.9719357,86.4687495 25.4500823,97.1870646 38.7208976,97.1870646 C51.9931482,97.1870646 56.4827773,86.4687495 58.0601757,84.1642118 C58.0601757,84.1642118 51.0027889,80.3037896 49.6593449,80.3037896" id="Fill-4" fill="#E6E4E1"></path>
                                    <path d="M9.4830496,46.9797166 C9.4830496,46.9797166 9.33090744,47.2883217 9.13140027,47.1497352 C8.85582202,47.0425806 8.84146898,46.9797166 8.52857284,46.9797166 C7.16790521,46.9797166 6.35121757,48.0755507 6.35121757,49.4285558 L6.35121757,59.3210663 C6.35121757,60.6740714 7.16790521,61.7699055 8.52857284,61.7699055 C9.07255283,61.7699055 9.42994338,61.5898858 9.83613424,61.289853 C13.1473792,76.3600726 24.8178312,87.501291 38.7933805,87.501291 C52.7689297,87.501291 64.4723937,76.3600726 67.7836387,61.289853 C68.1912648,61.5898858 68.5687496,61.7699055 69.1141649,61.7699055 C70.4748325,61.7699055 71.4551448,60.6740714 71.4551448,59.3210663 L71.4551448,49.4285558 C71.4551448,48.0755507 70.4547383,46.9797166 69.0983766,46.9797166 C68.7826098,46.9797166 68.5371729,47.0425806 68.2601594,47.1497352 C36.7452025,50.7887046 9.4830496,46.9797166 9.4830496,46.9797166" id="Fill-6" fill="#E6E4E1"></path>
                                    <polyline id="Fill-8" fill="#FEFEFE" points="57.8325366 83.7738834 25.3257851 138.128399 61.9288925 138.128399 61.9288925 85.9684091"></polyline>
                                    <polyline id="Fill-10" fill="#FEFEFE" points="19.2123973 83.5338571 35.8088106 136.548226 30.1709388 136.548226"></polyline>
                                    <path d="M68.8579633,52.8196409 C68.8579633,72.0803188 55.4464882,87.6934549 38.9031812,87.6934549 C22.3613094,87.6934549 8.94983439,72.0803188 8.94983439,52.8196409 C8.94983439,33.5618205 22.3613094,17.9486845 38.9031812,17.9486845 C55.4464882,17.9486845 68.8579633,33.5618205 68.8579633,52.8196409" id="Fill-12" fill="#E6E4E1"></path>
                                    <path d="M15.7810174,29.0253244 C14.9097883,29.5868144 8.48967612,32.6714375 8.20405074,48.6317544 C8.15812103,51.136314 8.33896926,53.6223002 9.534577,53.5565787 L11.6085904,53.5580074 C12.2673947,44.2984233 13.9883235,37.5448276 15.7293465,35.0774149 C20.4830714,28.3466788 16.682388,28.5838476 15.7810174,29.0253244" id="Fill-14" fill="#333332"></path>
                                    <path d="M62.2229862,29.0253244 C63.0942154,29.5868144 69.5143275,32.6714375 69.7999529,48.6317544 C69.8458826,51.136314 69.6650344,53.6223002 68.4694266,53.5565787 L66.3954132,53.5580074 C65.7366089,44.2984233 64.0156802,37.5448276 62.2746571,35.0774149 C57.5209322,28.3466788 61.3216157,28.5838476 62.2229862,29.0253244" id="Fill-16" fill="#333332"></path>
                                    <g id="Group-20" transform="translate(2.870607, 0.169971)" fill="#FCBC68">
                                        <path d="M68.4450265,39.4335099 C67.9254466,22.5930968 57.1721535,8.67157424 42.9325084,5.21548198 L42.9325084,0.224936195 L29.1335015,0.224936195 L29.1335015,5.21548198 C14.8938564,8.67157424 4.14056327,22.5930968 3.62098343,39.4335099 L0.0829605369,39.4335099 L0.0829605369,46.0685213 L71.9830494,46.0685213 L71.9830494,39.4335099 L68.4450265,39.4335099 Z" id="Fill-18"></path>
                                    </g>
                                    <path d="M38.6141111,74.0929675 C33.6350435,74.0929675 29.5989704,72.1098935 29.5989704,69.6639117 C29.5989704,67.2179299 33.6350435,65.2348559 38.6141111,65.2348559 C43.5931786,65.2348559 47.6292518,67.2179299 47.6292518,69.6639117 C47.6292518,72.1098935 43.5931786,74.0929675 38.6141111,74.0929675 M49.9458315,64.4033364 C45.4547671,61.4101519 42.8884446,61.8416276 38.7102764,61.8416276 C34.5321082,61.8416276 31.3184639,62.2230979 26.2087837,64.7448023 C13.4030067,71.0640648 9.45448707,59.2984924 9.17029699,52.9035073 L8.64928186,52.6749108 C8.64928186,78.7977677 27.2393316,87.8116107 38.519381,87.8116107 C49.9774081,87.8116107 68.3765625,79.4964156 69.0109666,52.6749108 L68.2976208,53.2035401 C67.2024843,59.9742806 63.397495,73.3686026 49.9458315,64.4033364" id="Fill-21" fill="#B9B7B4"></path>
                                </g>
                            </g>
                        </g>
                    </g>
                </g>
                <g id="Page-1" transform="translate(67.000000, 65.000000)">
                    <g id="Group-3" transform="translate(15.000000, 0.345000)">
                        <mask id="mask-6" fill="white">
                            <use xlink:href="#path-5"></use>
                        </mask>
                        <g id="Clip-2"></g>
                        <path d="M4.0249,3.1777 C5.0609,2.4587 3.7249,1.2487 2.3899,0.8307 C2.1369,0.7507 0.9179,0.4447 0.3589,0.8957 C-0.2001,1.3467 0.0469,1.8517 0.0979,1.9317 C0.7079,2.8967 2.8909,3.9647 4.0249,3.1777" id="Fill-1" fill="#635E59" mask="url(#mask-6)"></path>
                    </g>
                    <g id="Group-6" transform="translate(0.000000, 0.345000)">
                        <mask id="mask-8" fill="white">
                            <use xlink:href="#path-7"></use>
                        </mask>
                        <g id="Clip-5"></g>
                        <path d="M0.3694,3.1777 C1.5034,3.9647 3.6864,2.8967 4.2964,1.9317 C4.3474,1.8517 4.5944,1.3467 4.0354,0.8957 C3.4764,0.4447 2.2574,0.7507 2.0044,0.8307 C0.6704,1.2487 -0.6666,2.4587 0.3694,3.1777" id="Fill-4" fill="#635E59" mask="url(#mask-8)"></path>
                    </g>
                    <path d="M4.5036,17.8385 C4.5036,17.8385 5.7446,15.7025 9.1976,15.7825 C12.6506,15.8625 13.9456,17.8385 13.9456,17.8385" id="Stroke-7" stroke="#D19E9C" stroke-width="1.013" stroke-linecap="round"></path>
                    <path d="M9.4965,6.7954 C10.3615,6.6624 11.2055,6.6944 11.6005,7.1804 C12.5655,8.3664 12.2885,9.7354 10.6645,10.7464 C9.8515,11.2514 8.7015,11.4584 7.9965,11.1464" id="Stroke-9" stroke="#D1BFA3" stroke-width="0.506" stroke-linecap="round"></path>
                </g>
            </g>
        </g>
    </g>
</svg>