<?xml version="1.0" encoding="UTF-8" standalone="no"?>
<svg width="150px" height="149px" viewBox="0 0 150 149" version="1.1" xmlns="http://www.w3.org/2000/svg" xmlns:xlink="http://www.w3.org/1999/xlink">
    <!-- Generator: Sketch 47 (45396) - http://www.bohemiancoding.com/sketch -->
    <title>Feilmelding_leder Copy</title>
    <desc>Created with Sketch.</desc>
    <defs>
        <ellipse id="path-1" cx="74.9896278" cy="74.5382395" rx="74.9896278" ry="74.3506494"></ellipse>
    </defs>
    <g id="Feilmeldinger" stroke="none" stroke-width="1" fill="none" fill-rule="evenodd">
        <g id="Dersom-man-har-en-påstartet-" transform="translate(-447.000000, -448.000000)">
            <g id="Feilmelding_leder-Copy" transform="translate(447.000000, 448.000000)">
                <g id="Group-11" transform="translate(0.000000, 0.187590)"></g>
                <mask id="mask-2" fill="white">
                    <use xlink:href="#path-1"></use>
                </mask>
                <use id="Mask" fill="#E2AFA7" xlink:href="#path-1"></use>
                <g id="Group" mask="url(#mask-2)">
                    <g transform="translate(34.539474, 26.470588)">
                        <g id="Dame-med-håndskade">
                            <path d="M3.90631579,40.1040365 L3.90631579,95.1938945 C3.90631579,95.1938945 3.76708134,80.7508925 39.3436364,80.7508925 C74.9216268,80.7508925 38.3201914,40.1040365 38.3201914,40.1040365 L3.90631579,40.1040365 Z" id="Fill-63" fill="#303339"></path>
                            <path d="M75.3248325,40.1040365 L75.3248325,95.1938945 C75.3248325,95.1938945 75.217177,80.7508925 39.6420574,80.7508925 C4.06406699,80.7508925 40.4214833,40.1040365 40.4214833,40.1040365 L75.3248325,40.1040365 Z" id="Fill-65" fill="#303339"></path>
                            <path d="M39.3364593,79.0978702 C19.757512,79.0978702 3.88909091,61.4459432 3.88909091,39.6706897 C3.88909091,17.8982759 19.757512,0.244929006 39.3364593,0.244929006 C58.9111005,0.244929006 74.7823923,17.8982759 74.7823923,39.6706897 C74.7823923,61.4459432 58.9111005,79.0978702 39.3364593,79.0978702 Z" id="Fill-67" fill="#303339"></path>
                            <path d="M51.0518182,66.791927 L39.4336364,66.791927 L27.8154545,66.791927 C21.5513397,66.791927 0.73076555,79.9187018 0.73076555,91.8683976 L0.73076555,123.308763 L78.4982297,123.308763 L78.4982297,91.8683976 C78.4982297,79.9187018 57.3144976,66.791927 51.0518182,66.791927" id="Fill-69" fill="#8E9738"></path>
                            <path d="M50.3649761,65.8766734 C49.0214354,65.8766734 39.4343541,69.9346856 39.4343541,69.9346856 C39.4343541,69.9346856 28.1448804,66.7555781 27.2735885,66.5880325 C26.4008612,66.4190669 20.1195215,69.7117647 20.1195215,69.7117647 C21.6927273,71.9991886 26.1697608,82.6454361 39.4343541,82.6454361 C52.6989474,82.6454361 57.1860287,71.9991886 58.7621053,69.7117647 C58.7621053,69.7117647 51.7085167,65.8766734 50.3649761,65.8766734" id="Fill-71" fill="#E7E5E2"></path>
                            <path d="M10.2100478,32.7786004 C10.2100478,32.7786004 10.0578947,33.0852941 9.85837321,32.9475659 C9.58277512,32.8410751 9.56842105,32.7786004 9.2569378,32.7786004 C7.89760766,32.7786004 7.08086124,33.8676471 7.08086124,35.2108519 L7.08086124,45.0349899 C7.08086124,46.3810345 7.89760766,47.4686613 9.2569378,47.4686613 C9.80095694,47.4686613 10.1569378,47.2897566 10.5631579,46.9915822 C13.8717703,61.9599391 25.5358852,73.0250507 39.5038278,73.0250507 C53.4732057,73.0250507 65.1717703,61.9599391 68.4803828,46.9915822 C68.8880383,47.2897566 69.2655502,47.4686613 69.8095694,47.4686613 C71.1703349,47.4686613 72.1492823,46.3810345 72.1492823,45.0349899 L72.1492823,35.2108519 C72.1492823,33.8676471 71.1502392,32.7786004 69.7937799,32.7786004 C69.4779904,32.7786004 69.2110048,33.0952333 68.9569378,32.9475659 C39.3358852,15.7585193 10.2100478,32.7786004 10.2100478,32.7786004" id="Fill-73" fill="#E7E5E2"></path>
                            <polyline id="Fill-75" fill="#FFFFFF" points="58.5344498 69.323144 26.0454545 123.308337 62.6296651 123.308337 62.6296651 71.5026572"></polyline>
                            <polyline id="Fill-77" fill="#FFFFFF" points="19.934067 69.0846045 36.5230622 121.739371 30.8862201 121.739371"></polyline>
                        </g>
                        <g id="Usikker-dame-Copy" transform="translate(27.631579, 40.196078)">
                            <path d="M17.4148607,19.6078431 C17.4148607,19.6078431 16.464335,18.0643314 14.0365292,18.2180465 L11.6099071,18.3728218" id="Stroke-137" stroke="#D19E9C" stroke-width="1.013" stroke-linecap="round"></path>
                            <path d="M2.1871242,5.59764367 C0.186864781,5.72248321 -0.37298668,3.27670221 0.229717609,1.68063546 C0.343070251,1.37726197 1.00521556,0 2.17744775,0 C3.3482976,0 3.86529623,0.753064293 3.9371784,0.88193091 C4.798382,2.4390692 4.37538312,5.46072289 2.1871242,5.59764367" id="Fill-139" fill="#635E59"></path>
                            <path d="M22.4840711,5.59764367 C24.4842,5.72248321 25.044015,3.27670221 24.44135,1.68063546 C24.3280048,1.37726197 23.6659027,0 22.493747,0 C21.3229735,0 20.8060086,0.753064293 20.7341311,0.88193091 C19.8729837,2.4390692 20.2945728,5.46072289 22.4840711,5.59764367" id="Fill-141" fill="#635E59"></path>
                            <path d="M13.7028761,8.48622689 C14.9098216,8.32303831 16.0874655,8.36230173 16.638614,8.95861489 C17.9850907,10.4138153 17.5985891,12.0935534 15.3326013,13.334032 C14.1982121,13.9536578 12.5936026,14.207643 11.6099071,13.8248247" id="Stroke-143" stroke="#D1BFA3" stroke-width="0.506" stroke-linecap="round"></path>
                        </g>
                    </g>
                </g>
            </g>
        </g>
    </g>
</svg>