<svg xmlns="http://www.w3.org/2000/svg" fill="none" aria-hidden="true" viewBox="0 0 443 525">
    <g>
        <path fill="#DDC7A2"
              d="M0 491.47c0-10.75 136-31.79 216.32-31.79s226.1 16.17 226.1 30.48c0 14.31-107.51 34.54-226.1 34.54C97.73 524.7 0 509.72 0 491.47Z"
        />
        <path fill="#852500" d="m113.91 436.43-20.84 49.13h-4.13l15.94-57.12 9.03 7.99Z"
        />
        <path fill="#9B3601" d="m92.65 435.23-6.1 50.33h4.71l16.58-49.37-15.19-.96Z"
        />
        <path fill="#852500" d="m276.19 425.68 23.17 54.62h4.58l-17.71-63.5-10.04 8.88Z"
        />
        <path fill="#9B3601" d="m299.82 424.34 6.78 55.96h-5.24l-18.43-54.9 16.89-1.06Z"
        />
        <path fill="#852500"
              d="m130.22 436.43-4.79 37.19h6.08l22.75-51.48h-20.58l-3.46 14.29Zm135.26 0 4.79 37.19h-6.08l-22.75-51.48h20.58l3.46 14.29Z"
        />
        <path fill="#630701" d="M304.18 404.12v-89.81H150.41l-4.67 96.11 158.44-6.3Z"
        />
        <path fill="#430000" d="M304.18 404.12H138.14v21.06h166.04v-21.06Z"/>
        <path fill="#430000"
              d="M149.75 404.11s-5.95-73.63 33.41-76.67l-25.59-22.59-26.06 4.12 3.47 99.48 14.77-4.34Z"
        />
        <path fill="#630701"
              d="M63.5 285.48s4.92 129.49 10.42 148.06c0 0 62.88 6.84 70.37 0l-2.87-155.69-77.92 7.63Z"
        />
        <path fill="#510201"
              d="M66.77 357.2s-4.55-68.45-2.92-70.1c1.63-1.65 82.39-2.25 82.39-2.25v8.8s-54.39-.41-79.47 63.55Z"
        />
        <path fill="#630701"
              d="M74.42 230.28S37.1 76.95 15.42 46.76c0 0 63-38.88 128.36-38.88 65.36 0 114 25 114 25v197.4H74.42Z"
        />
        <path fill="#630701"
              d="m87.27 230.28-37.79 3.81s-5.54 1.84-5.54 11c0 0 0 30.63 2.93 35.84 2.93 5.21 14 4.56 14 4.56h77.7v-62.26l-51.3 7.05Z"
        />
        <path fill="#7C0809"
              d="M49.48 234.09s-9.13 4.56 1.94 4.76c11.07.2 50.17.44 85.14 18.36v-34l-87.08 10.88Z"
        />
        <path fill="#430000"
              d="M306.01 225.14s17.5-2.61 18.15 10.21c.65 12.82 3.47 41.05-1.09 42.46-4.56 1.41-22.39-38.77-17.06-52.67Zm10.77 60.34v19.38l-23.27-15.15 23.27-4.23Z"
        />
        <path fill="#AF7957" d="m171.37 119.92 4.79-14.25 23.28 13.34-5.05 10.68 1.58 9.72-24.7-5.27.1-14.22Z"/>
        <path fill="#F9E3D2"
              d="M294.42 430.71s6.33 37.09 5.67 43.61c-.66 6.52-3.91 9.45-2.93 13.84.98 4.39-3.42 6.85 22.16 8 25.58 1.15 1.74-17.11 1.74-17.11l-6.64-3.59.81-46.37-20.81 1.62Zm-56.92 23.52s4.4 23.46 3.74 30c-.66 6.54-3.91 9.45-2.93 13.85s-3.42 6.84 22.16 8c25.58 1.16 1.74-17.1 1.74-17.1l-6.63-3.59.81-32.58-18.89 1.42Z"/>
        <path fill="#F9E3D2" d="M171.37 124.04v-12.66l22.93 9.43.09 13v12.11h-23.02v-21.88Z"
        />
        <path fill="#F9E3D2"
              d="M203.3 120.94c15.6 0 33.79-13.26 33.79-45.48 0-14-1.15-22.72-4.51-32.29-6.15-17.54-18.91-29.74-40-29.74-16.61 0-30.43 9-37 22.82-4.27 9-4.13 20.11-4.13 32.08 0 11.97 2.45 9.46 2.94 13.82 1.37 12.11 5 22.24 12.82 29.64 9.09 8.54 20.5 9.15 36.09 9.15Z"/>
        <path fill="#F9E3D2"
              d="M160.66 94.06c0-2.24-4.5-26.87-4.5-26.87-2.32.5-4.58 1.25-6.74 2.24a8.23 8.23 0 0 0-4.5 6.72c0 2.24 0 4.48 2.25 9 4.5 8.91 11.25 8.91 13.49 8.91Z"/>
        <path fill="#FA3"
              d="M236.82 69.49c0-.14-.78-9.44-2-13.5-2.25-7.63-6.74-11.45-6.74-11.2 0 0 2.07 12.11.61 10.14-8.29-11.14-29.5-1.29-37.47-15.66-1 7.91 9.06 10.3 9.06 10.3-8 1.54-15-1.74-16.85-5.64-.62 3.18-.86 5.29 1.92 7.47-9.85-1.9-7.86-8.81-7.86-8.81-7.78 1.07-15.19 11.64-16 20.93-.81 9.29-5.28 12.63-5.28 12.63a16.08 16.08 0 0 0-9-4.48s-2.24-6.72-2.24-11.2c0-10.9-.93-18.71 2.24-28C153.95 12.76 171.91.1 190.07.01c33.47-.17 49.19 22.34 49.19 53.75a48.08 48.08 0 0 1-2.44 15.73Z"
        />
        <path fill="#262626"
              d="M219.1 65.67c0-2.74 1-4.79 2.48-5.14a2.6 2.6 0 0 1 2.63 1.28c1.79 2.95 2.6 9.31-.12 10.26-3.25 1.06-4.99-1.87-4.99-6.4Zm-24.39 7.18c-3.53-.14-4.15-5.68-2.87-8.77.25-.58 1.14-3.05 3.66-3a4.79 4.79 0 0 1 3.95 2.55c1.29 3.29 1 9.36-3.83 9.22h-.91Z"
        />
        <path fill="#262626"
              d="M214.96 74.37c.26.26.54.49.84.69a4.58 4.58 0 0 0 3.44.7l.25-.06c1.71-.27 2.87-.06 3.29.52 1.67 2.3 1.14 4.74-1.72 6.74-1.5 1.06-3.57 1.43-4.67.88a1 1 0 0 0-1.4.61 1.25 1.25 0 0 0 .54 1.57c1.81.9 4.6.41 6.65-1 3.88-2.72 4.77-6.79 2.25-10.27-1-1.43-2.85-1.76-5.23-1.38l-.31.06a2.68 2.68 0 0 1-2.49-.8 1 1 0 0 0-1.18-.19 1 1 0 0 0-.32.27 1.3 1.3 0 0 0 .06 1.66ZM202 101.85a1.12 1.12 0 0 1-.85-1.34c.24-1.08 1.66-1.58 5.13-2.07.46-.07.93-.1 1.39-.1a18.53 18.53 0 0 1 3.77.32 1.13 1.13 0 0 1-.42 2.21l-1-.14c-.78-.1-1.56-.15-2.35-.14a17.72 17.72 0 0 0-4.31.74l-.24.09a1.12 1.12 0 0 1-1.12.43Z"/>
        <path fill="#FA3"
              d="M217.91 88.85c-3.19-1-4.32-1.31-9.38-1.31-3.5.05-6.98.7-10.26 1.95-2 .63-4.27 1.35-7.26 2.05-27.51 5.85-33.66-10.76-36-17.12a6.67 6.67 0 0 0-1.09-2.31c-1.52 0-2.31 2.21-2.24 4.05.72 18 9 35.83 22.47 42.55 1.46.6 2.76 1.16 4 1.68 7.93 3.4 11.74 5 27.28 5 9 0 19.69-9.8 24.61-17.92 5.56-9.15 8.13-20.59 6.72-38.07l-.29 1.61c-1.2 7.1-3.73 21.93-15.1 18.79-1.46-.35-2.55-.68-3.46-.95Zm-8.63 3c9 0 14.32 2.65 14.32 6.68 0 4.03-5.32 11.17-14.32 11.17-11.62.82-19.4-5.49-19.4-9.46 0-3.97 10.39-8.39 19.4-8.39Z"
        />
        <path fill="#103157"
              d="M270.91 324.19s8.91-3.7 9.78 1.08c.87 4.78 6.84 112.29 8.2 114.9 0 0 21.34 9.55 37.41-2.39l-5.21-120.76s2-12.16-6.52-17.59-17.15-9.72-17.15-9.72l-39.53 19.49 13.02 14.99Z"/>
        <path fill="#174974"
              d="M315.17 442.85S332 315.09 302.52 302.38c0 0-5.9-6.08-18.36-8-12.46-1.92 14.45-3.69 14.45-3.69s19.35 6.3 21.56 13.68c2.21 7.38 6.13 133.79 6.13 133.79l-11.13 4.69Z"/>
        <path fill="#1F78B9" d="M177.72 162.32v-22.91h19.38v28.94l-19.38-6.03Z"
        />
        <path fill="#338AE3"
              d="M134.88 226.85s-26.22 9.28-55.22 8.47c-29-.81 0-45.77 0-45.77s31.6-47.73 49.36-66.79c0 0 6.54-5.21 7.59 4.23 1.05 9.44-3.6 45.45-3.6 45.45s-12.95 18-18.49 24.33l14.82-2.22 5.54 32.3Z"
        />
        <path fill="#1F78B9"
              d="M136.42 133.16a58.73 58.73 0 0 1-13.71 39.75c-15.61 18.41-28.64 27.24-28.64 27.24s-7.66 7.3-1.8 5.59 13.52-4.49 13.52-4.49-10.75 11.84-12.21 15.94c-1.46 4.1-1 6.19 3.42 3.43 4.42-2.76 17.1-18.23 17.1-18.23a32.28 32.28 0 0 1 13.2 27.21l14.12-5.91-14-47.69s14.37-20.36 9-42.84Z"
        />
        <path fill="#C83D20"
              d="M130.26 121.96s7.52-4.74 12.16.07c4.64 4.81.94 40.18-2.6 49.92h-9.53s13.79-38.53-.03-49.99Z"
        />
        <path fill="#B03114"
              d="m138.05 119.92 26.37 8.36s5.21 22.91 12.27 26.6a7.42 7.42 0 0 1 6.63 4.13 31.63 31.63 0 0 0 5.54 7.22s6.62-10.26 11.18-12.87c0 0 1.85-13.68-3.58-22.8 0 0 4.12 3.47 22.69 3.58 0 0 6.85 22 5.11 41.81l-83.9-5.65s9.22-38.11-2.31-50.38Z"
        />
        <path fill="#C83D20"
              d="M219.14 134.14s.76-1.41 4.57 0c0 0 7.81 31.28 6.78 42.68h-7s-.33-33.88-4.35-42.68Z"
        />
        <path fill="#338AE3"
              d="M223.71 134.14s9 3.72 23.24 32.76l-16.46 6.77-6.78-39.53Zm-52.35-14.22-6.94 8.36 7.71 29.75s11.51 1.74 17.05-14.12c0 0 1.41 11.62 9.88 14.77 8.47 3.15-2.6-28.12-2.6-28.12l-2.07-.87s.44 9.12-6.92 5.65c-17.74-8.38-16.11-15.42-16.11-15.42Z"
        />
        <path fill="#0A2D46"
              d="M155.42 312.71s26.06 21.79 72.81 28l-8.3 108.14s15.63 13.69 42.67 5.22l7.48-118.92s4.25-14.33.51-18.89c-3.74-4.56-28.84-22.64-28.84-22.64l-86.33 19.09Z"/>
        <path fill="#133155"
              d="M205.93 312.47s-24.65-.65-24.65 6.84 13.9 15.64 58.86 11.4c0 0-4.42 60.6-16.87 120.22 0 0 15.24 7.49 32.18 4.23l9.36-114.31s4.08-28.37-12.74-28.36c-16.82.01-46.14-.02-46.14-.02Z"/>
        <path fill="#174974"
              d="M251.53 312.35s13 1.63 12.74 16.29c-.26 14.66-10 127.44-10 127.44l8.46-1.69s15-130.36 8.55-138.94c-7.39-9.83-10.83-9-10.83-9l-8.92 5.9Z"/>
        <path fill="#9F2712"
              d="M238.7 501.5s-23.85 3.72-8.37 5.51c15.48 1.79 60.11 4.23 73.95 2.12 13.84-2.11 19.06-3.26 11.41-10.75-7.65-7.49-32.89-17.44-46.43-18.09 0 0-12.2.82-7 11.24 8.47 17.32-23.56 9.97-23.56 9.97Z"/>
        <path fill="#9F2712"
              d="M299.42 491.61s-23.84 3.72-8.37 5.51c15.47 1.79 60.11 4.24 74 2.12s19.06-3.26 11.4-10.75c-7.66-7.49-32.88-17.43-46.42-18.08 0 0-12.2.81-7.06 11.24 8.45 17.27-23.55 9.96-23.55 9.96Z"/>
        <path fill="#AF3314"
              d="M350.86 475.73s21.86 9.24 26.39 15.31c4.53 6.07-34.37-3.42-52.61-14.17 0 0-1-7.49 11.73-5.21 12.73 2.28 14.49 4.07 14.49 4.07Zm-61.05 10.12s21.85 9.24 26.39 15.31c4.54 6.07-34.38-3.42-52.62-14.17 0 0-1-7.49 11.73-5.21 12.73 2.28 14.5 4.07 14.5 4.07Z"/>
        <path fill="#fff"
              d="m226.69 179.41-24.46-2.42a2 2 0 0 1-1.77-2.2l1.32-13.35a2 2 0 0 1 2.17-1.81l24.47 2.42a1.99 1.99 0 0 1 1.7 1.42c.08.25.1.52.08.78l-1.32 13.35a2 2 0 0 1-2.18 1.81"
        />
        <path fill="#262626"
              d="m217.42 163.74-2.54-.25a.34.34 0 0 1-.23-.12.34.34 0 0 1-.07-.25v-.43a.34.34 0 0 1 .37-.3l2.54.25a.34.34 0 0 1 .23.12.33.33 0 0 1 .07.25v.42a.34.34 0 0 1-.24.3.34.34 0 0 1-.13.01Z"
        />
        <path fill="#6A6A6A" d="m215.42 163.15 1.46.15.4-3.95-1.47-.14-.39 3.94Z"
        />
        <path fill="#C30000"
              d="M215.08 175.07a5.55 5.55 0 1 1 1.1-11.05 5.55 5.55 0 0 1-1.1 11.05Zm-7.89-3.92 1.41-2.69 1.08.11-1.4 2.68-1.09-.1Zm13.93 1.38 1.39-2.69.59.06-1.39 2.68-.59-.05Zm2.19.21 1.39-2.68h.32l-1.39 2.68h-.32Z"
        />
        <path fill="#fff"
              d="m220.42 169.63-1-.1-.06.01a.13.13 0 0 0-.04.04l-.71 1.61-.37-1.71a.1.1 0 0 0-.09-.07l-1.89-.19c-.02 0-.04 0-.05.02a.08.08 0 0 0-.03.05l-.06.56c.05-.45-.41-.68-.69-.71a1.2 1.2 0 0 0-1.28.92c0-.42 0-.57-.08-.73a.64.64 0 0 0-.19-.21 1.1 1.1 0 0 0-.62-.2h-.38a.1.1 0 0 0-.05-.01.1.1 0 0 0-.05.01l-.42.81.08-.83c0-.02 0-.04-.02-.05a.08.08 0 0 0-.05-.03l-.87-.09a.1.1 0 0 0-.06.01.1.1 0 0 0-.04.04l-.44.85s-.05.08 0 .09h.34l-.17 1.68c0 .02 0 .04.02.05.01.02.03.03.05.03l.87.09c.02 0 .04 0 .05-.02a.08.08 0 0 0 .03-.05l.17-1.68h.33c.1 0 .21.02.31.07.04.02.08.06.1.1a1 1 0 0 1 0 .5l-.11 1.06c0 .02 0 .04.02.05.01.02.03.03.05.03l.83.09a.15.15 0 0 0 .14-.08l.23-.44a1.35 1.35 0 0 0 1.09.66h.11a.15.15 0 0 0 .14-.08l.4-.76-.08.81v.03l.02.03.02.01.03.01.84.09a.14.14 0 0 0 .14-.08l.43-.82c0-.07-.07-.08-.07-.08h-.3l.14-1.45.72 2.46a.12.12 0 0 0 .12.1l1 .1a.15.15 0 0 0 .14-.08l1.31-2.5c.05-.09-.06-.1-.06-.1l.06.08Zm-4.39 1.37-.57-.06a.41.41 0 0 1 .08-.82h.16a.42.42 0 0 1 .28.15l.08.14.01.16-.04.43Z"
        />
        <path fill="#E6CEAA"
              d="M139.18 316.15s42.72-13.25 105.05 5c0 0 45.83-32.79 83.84-35.18 0 0-22.42-57.94-24.53-75.81-2.11-17.87 3.17-64.93 3.17-64.93l-79.64 28.88-78.36-7.81-38.49 7.15s14.82 29.73 19.33 43.45c10.64 32.35 9.63 99.25 9.63 99.25Z"
        />
        <path fill="#FAE4C6"
              d="M244.23 321.14s45.83-32.79 83.84-35.18c0 0-22.42-57.94-24.53-75.81-2.11-17.87 3.17-64.93 3.17-64.93l-79.64 28.88"
        />
        <path fill="#E6CEAA"
              d="m123 200.82 8.79 21.6 18.51-4.2.91-15.82-6.5-4.93-21.71 3.35Zm179.87-12.14.92 23.07-17.48 2.88-7.63-15.27 7.15-8.96 17.04-1.72Z"
        />
        <path fill="#E6CEAA" d="m231.31 230.71.65-3.23 66.47-16.94v5.71l-67.12 14.46Z"
        />
        <path fill="#E5BDA3"
              d="M121.79 198.78s-8.4 5.74 11.95 4.45c0 0 15.34-3.05 12-5.79-2.15-1.81-23.95 1.34-23.95 1.34Z"
        />
        <path fill="#F9E3D2"
              d="M122 199.13s-.08 2.12 11.81 2.12c0 0 7.58-.57 11.57-3.26s-26.72-.41-23.38 1.14Z"/>
        <path fill="#E5BDA3"
              d="M124.42 207.06s-8.59 7.89 14.29 3.1c0 0 16.9-6 12.7-8.55-2.79-1.69-26.99 5.45-26.99 5.45Z"
        />
        <path fill="#F9E3D2"
              d="M125.19 206.85s.09 1 13.19-1.3c0 0 8.3-1.76 12.47-3.83 4.17-2.07-29.43 5.07-25.66 5.13Z"
        />
        <path fill="#E5BDA3"
              d="M123.72 215.21s-8.59 7.89 14.29 3.09c0 0 16.9-6 12.7-8.54-2.78-1.7-26.99 5.45-26.99 5.45Zm5.44 6.37s-6.6 6.06 11 2.37c0 0 13-4.59 9.76-6.56-2.16-1.3-20.76 4.19-20.76 4.19Zm177.49-32.64s8.92 4.91-11.46 5.59c0 0-15.56-1.56-12.54-4.61 2.01-2.01 24-.98 24-.98Z"
        />
        <path fill="#F9E3D2"
              d="M306.48 189.31s.28 2.1-11.55 3.25c0 0-7.6.16-11.83-2.13s26.56-2.99 23.38-1.12Z"/>
        <path fill="#E5BDA3"
              d="M306.36 196.73s10.24 5.6-13.12 6.44c0 0-17.85-1.74-14.39-5.24 2.29-2.31 27.51-1.2 27.51-1.2Z"
        />
        <path fill="#F9E3D2"
              d="M306.33 196.91s.14 1-13.27 1.66c0 0-8.56.15-13.12-.92-4.56-1.07 30.13-1.66 26.39-.74Z"
        />
        <path fill="#E5BDA3"
              d="M304.72 203.99s8.65 5.23-11.6 5.08c0 0-15.38-2.17-12.25-5.07 2.06-1.92 23.85-.01 23.85-.01Zm-.3 7.31s7 3.09-8.23 4.95c0 0-11.77-.15-9.7-2.63 1.35-1.64 17.93-2.32 17.93-2.32Z"
        />
        <path fill="#F9E3D2"
              d="M128.56 213.85s.07.82 10.42-1c0 0 6.55-1.39 9.84-3s-23.27 3.93-20.26 4Zm5.72 6.39s.05.57 7.32-.72a38.6 38.6 0 0 0 6.91-2.12c2.31-1.15-16.35 2.79-14.23 2.84Zm169.14-8.76s.11.56-7.22 1.39c-2.4.2-4.83.18-7.23-.07-2.55-.44 16.45-1.95 14.45-1.32Zm.19-7.42s0 .72-9.21.65c-3.03-.11-6.04-.5-9-1.17-3.11-.93 20.82.02 18.21.52Z"
        />
        <path fill="#C4AC8D"
              d="m112.07 174 14.77 12.38 22.27-19.44 1.3.76-4.67 4.67s50.38 3.69 63.09 6.62v5.76s-42.16-8.26-70.11-4.56l-6.78 6.19s20.42-4.24 41.49-2 47.23 5.47 47.23 5.47v5.65s-39.85-6.19-59.29-6.19c-19.44 0-40.61 5.62-40.61 5.62L112.07 174Z"
        />
        <path fill="#C4AC8D"
              d="M220.67 198.58v3.82l-50.12-2.25v-5.62l50.12 4.05Zm0 7.53v2.97l-50.12-1.48v-5.2l50.12 3.71Zm-66.41 10.14v26.06l64.89.65 1.52-25.77-66.41-.94Zm-9.93 29.97v5.53h75.74v-2.76l-75.74-2.77Zm21.82 8.14.82 4.07h53.1v-4.07h-53.92Zm-19.9 6.52 1.66 4.39 72.16-1.14v-3.25h-73.82Zm8.01 28.83 1.79 4.72h75.26v-2.36l-77.05-2.36Z"
        />
        <path fill="#E6CEAA"
              d="M249.71 305.34s23.62-17.43 52.62-23.94v5.21s-33.72 10.24-52.62 23.62v-4.89Zm-1.14-2.93-1.46-3.42s16-11.4 25.74-14.17v4.89s-13.85 5.53-24.28 12.7Zm29-20.03v4.72a60.93 60.93 0 0 1 22.48-7.33v-5.38s-8.15.33-22.48 7.99Zm-45.44-34.21 63.3-10.26v-4.73l-64.12 12.06.82 2.93Zm-.17-9.12-.65 2.44 60.6-10.26-.65-4.4-59.3 12.22Zm-.65-2.77v-3.1l44.72-8.04v1.69l-44.72 9.45Zm-.81-59.95 71.83-25.08v8.96l-71.83 21.01v-4.89Zm.81 9.45v2.9l48.22-13.97v-4.4l-48.22 15.47Zm0 5.82v2.93l31.28-8.42v-4.89l-31.28 10.38Zm36-11.19 12.22-3.1v3.91l-11.57 3.26-.65-4.07Zm-36 16.34 48.22-12.27v5.05l-48.22 10.62v-3.4Zm0 5.65v3.34l48.22-11.21v-5l-48.22 12.87Z"
        />
    </g>
</svg>

