<svg width="100" height="100" fill="none" xmlns="http://www.w3.org/2000/svg"><path fill-rule="evenodd" clip-rule="evenodd" d="M50 100c27.614 0 50-22.386 50-50S77.614 0 50 0 0 22.386 0 50s22.386 50 50 50z" fill="#38A161"/><path fill-rule="evenodd" clip-rule="evenodd" d="M25 29.167v49.687C25 80.592 26.454 82 28.25 82h43.503C73.546 82 75 80.592 75 78.854V21.147C75 19.409 73.546 18 71.753 18H36.11L25 29.167z" fill="#fff"/><path fill-rule="evenodd" clip-rule="evenodd" d="M66 38H34v3h32v-3zm0 8H34v3h32v-3zm-32 8h32v3H34v-3zm32 8H34v3h32v-3zM36 18v7.66c0 1.845-1.415 3.34-3.16 3.34H25l11-11z" fill="#F1F1F1"/><path fill-rule="evenodd" clip-rule="evenodd" d="M46.08 61.518l-5.514-6.435a2.356 2.356 0 01.247-3.313 2.327 2.327 0 013.296.247l3.585 4.183 10.26-14.23a2.329 2.329 0 013.264-.523 2.357 2.357 0 01.522 3.282L49.744 61.363a2.335 2.335 0 01-1.889.97 2.332 2.332 0 01-1.776-.815z" fill="#06893A"/></svg>