<svg width="100" height="100" fill="none" xmlns="http://www.w3.org/2000/svg"><path fill-rule="evenodd" clip-rule="evenodd" d="M50 100c27.614 0 50-22.386 50-50S77.614 0 50 0 0 22.386 0 50s22.386 50 50 50z" fill="#D87F0A"/><path fill-rule="evenodd" clip-rule="evenodd" d="M25 29.167v49.687C25 80.592 26.454 82 28.25 82h43.503C73.546 82 75 80.592 75 78.854V21.147C75 19.409 73.546 18 71.753 18H36.11L25 29.167z" fill="#fff"/><path fill-rule="evenodd" clip-rule="evenodd" d="M66 38H34v3h32v-3zm0 8H34v3h32v-3zm-32 8h32v3H34v-3zm32 8H34v3h32v-3zM36 18v7.66c0 1.845-1.415 3.34-3.16 3.34H25l11-11z" fill="#F1F1F1"/><path d="M39.77 41.77a2.63 2.63 0 000 3.72L46.28 52l-6.51 6.51a2.63 2.63 0 003.72 3.72L50 55.72l6.51 6.51a2.63 2.63 0 103.72-3.72L53.72 52l6.51-6.51a2.63 2.63 0 00-3.72-3.72L50 48.28l-6.51-6.51a2.63 2.63 0 00-3.72 0z" fill="#D87F0A"/></svg>