<svg width="24" height="24" viewBox="0 0 24 24" fill="none" xmlns="http://www.w3.org/2000/svg">
<path fill-rule="evenodd" clip-rule="evenodd" d="M0.481927 12.1939C0.587527 18.2784 5.35393 23.0448 11.3328 23.0448L11.5286 23.0429C17.7158 22.9344 22.6637 17.8953 22.5581 11.8099C22.4515 5.72638 17.687 0.960938 11.7082 0.960938L11.5114 0.962857C8.55457 1.0147 5.77057 2.20894 3.67489 4.32862C1.56481 6.46078 0.431047 9.25534 0.481927 12.1939ZM11.5277 1.92286L11.7082 1.92094C17.1581 1.92094 21.5011 6.27166 21.5981 11.8262C21.6941 17.3827 17.1696 21.983 11.5114 22.0829L11.3328 22.0848C5.88289 22.0848 1.53889 17.7331 1.44193 12.1776C1.39585 9.49918 2.43073 6.95134 4.35745 5.0035C6.27649 3.06334 8.82241 1.9699 11.5277 1.92286ZM11.52 13.9209C11.255 13.9209 11.04 13.7059 11.04 13.4409V6.72094C11.04 6.45598 11.255 6.24094 11.52 6.24094C11.785 6.24094 12 6.45598 12 6.72094V13.4409C12 13.7059 11.785 13.9209 11.52 13.9209ZM12.48 16.8009C12.48 17.3311 12.0502 17.7609 11.52 17.7609C10.9898 17.7609 10.56 17.3311 10.56 16.8009C10.56 16.2707 10.9898 15.8409 11.52 15.8409C12.0502 15.8409 12.48 16.2707 12.48 16.8009Z" fill="#3E3832"/>
</svg>
