<?xml version="1.0" encoding="UTF-8" standalone="no"?>
<svg width="32px" height="32px" viewBox="0 0 32 32" version="1.1" xmlns="http://www.w3.org/2000/svg" xmlns:xlink="http://www.w3.org/1999/xlink">
    <!-- Generator: Sketch 42 (36781) - http://www.bohemiancoding.com/sketch -->
    <title>report-problem-circle</title>
    <desc>Created with Sketch.</desc>
    <defs></defs>
    <g id="Ferdige-AG" stroke="none" stroke-width="1" fill="none" fill-rule="evenodd">
        <g id="report-problem-circle" fill-rule="nonzero" fill="#C30000">
            <g id="Filled_Version">
                <path d="M16.2720597,0.338580645 L15.9868535,0.341333333 C11.7018035,0.415655914 7.66856986,2.1292043 4.63147117,5.1667957 C1.57211247,8.2264086 -0.0709537487,12.2315699 0.00278249995,16.4459355 C0.155819997,25.167828 7.06337612,32 15.728081,32 L16.0105047,31.9972473 C24.978502,31.8444731 32.1503957,24.6186667 31.9959669,15.8940215 C31.8429294,7.17212903 24.9353733,0.338580645 16.2720597,0.338580645 Z M15.3037497,8.59664516 C15.3037497,8.21677419 15.6153897,7.90847312 15.9993747,7.90847312 C16.3819685,7.90847312 16.6949997,8.21677419 16.6949997,8.59664516 L16.6949997,18.2310538 C16.6949997,18.6109247 16.3819685,18.9192258 15.9993747,18.9192258 C15.6153897,18.9192258 15.3037497,18.6109247 15.3037497,18.2310538 L15.3037497,8.59664516 Z M16.0244172,24.4246022 L15.9993747,24.4246022 C15.2411435,24.4246022 14.620646,23.8245161 14.6081247,23.0730323 C14.5942122,22.3132903 15.2063622,21.6856774 15.9743322,21.6732903 C15.9826797,21.6732903 15.9910272,21.671914 15.9993747,21.671914 C16.7576059,21.671914 17.3767122,22.2733763 17.3906247,23.0248602 C17.4045372,23.7846022 16.7909959,24.4108387 16.0244172,24.4246022 Z" id="Shape"></path>
            </g>
        </g>
    </g>
</svg>